0
SECTION
2
HEADER
9
$INSUNITS
70
4
9
$ACADVER
1
AC1014
9
$HANDSEED
5
FFFF
0
ENDSEC
0
SECTION
2
TABLES
0
TABLE
2
VPORT
5
8
100
AcDbSymbolTable
0
ENDTAB
0
TABLE
2
LTYPE
5
5
100
AcDbSymbolTable
0
LTYPE
5
14
100
AcDbSymbolTableRecord
100
AcDbLinetypeTableRecord
2
BYBLOCK
70
0
0
LTYPE
5
15
100
AcDbSymbolTableRecord
100
AcDbLinetypeTableRecord
2
BYLAYER
70
0
0
LTYPE
5
16
100
AcDbSymbolTableRecord
100
AcDbLinetypeTableRecord
2
DASHED
70
0
3
Dashed __ __ __ __ __ __ __ __ __ __ __ __ __ _
72
65
73
2
40
0.75
49
0.5
74
0
49
-0.25
74
0
0
ENDTAB
0
TABLE
2
LAYER
5
2
100
AcDbSymbolTable
70
2
0
LAYER
5
50
100
AcDbSymbolTableRecord
100
AcDbLayerTableRecord
2
0
70
0
62
7
6
CONTINUOUS
0
ENDTAB
0
TABLE
2
STYLE
5
3
100
AcDbSymbolTable
70
1
0
STYLE
5
11
100
AcDbSymbolTableRecord
100
AcDbTextStyleTableRecord
2
STANDARD
70
0
0
ENDTAB
0
TABLE
2
VIEW
5
6
100
AcDbSymbolTable
70
0
0
ENDTAB
0
TABLE
2
UCS
5
7
100
AcDbSymbolTable
70
0
0
ENDTAB
0
TABLE
2
APPID
5
9
100
AcDbSymbolTable
70
2
0
APPID
5
12
100
AcDbSymbolTableRecord
100
AcDbRegAppTableRecord
2
ACAD
70
0
0
ENDTAB
0
TABLE
2
DIMSTYLE
5
A
100
AcDbSymbolTable
70
1
0
ENDTAB
0
TABLE
2
BLOCK_RECORD
5
1
100
AcDbSymbolTable
70
1
0
BLOCK_RECORD
5
1F
100
AcDbSymbolTableRecord
100
AcDbBlockTableRecord
2
*MODEL_SPACE
0
BLOCK_RECORD
5
1B
100
AcDbSymbolTableRecord
100
AcDbBlockTableRecord
2
*PAPER_SPACE
0
ENDTAB
0
ENDSEC
0
SECTION
2
BLOCKS
0
BLOCK
5
20
100
AcDbEntity
100
AcDbBlockBegin
2
*MODEL_SPACE
0
ENDBLK
5
21
100
AcDbEntity
100
AcDbBlockEnd
0
BLOCK
5
1C
100
AcDbEntity
100
AcDbBlockBegin
2
*PAPER_SPACE
0
ENDBLK
5
1D
100
AcDbEntity
100
AcDbBlockEnd
0
ENDSEC
0
SECTION
2
ENTITIES
0
LWPOLYLINE
5
100
100
AcDbEntity
8
0
100
AcDbPolyline
90
20
70
1
43
0.0
10
19.774999999999999
20
-77.924999999999983
10
19.774999999999991
20
-76.924999999999983
10
19.774999999999991
20
0.72499999999999776
10
25.775000000000002
20
0.72499999999999776
10
25.775000000000002
20
13.475000000000001
10
-8.4750000000000014
20
13.475000000000001
42
0.41421356237309503
10
-13.475000000000001
20
8.4750000000000014
10
-13.475000000000001
20
-84.674999999999997
42
0.41421356237309348
10
-8.4750000000000014
20
-89.674999999999997
10
283.7475
20
-89.674999999999997
42
0.41421356237309193
10
288.7475
20
-84.674999999999997
10
288.7475
20
8.4749999999999979
42
0.41421356237309209
10
283.7475
20
13.475000000000001
10
39.947499999999998
20
13.475000000000001
10
39.947500000000019
20
0.72499999999999831
10
45.947500000000012
20
0.72499999999999787
10
45.947500000000012
20
-76.924999999999983
10
45.947500000000012
20
-77.924999999999983
42
-0.41421356237309176
10
41.947499999999998
20
-81.924999999999983
10
23.774999999999999
20
-81.924999999999983
42
-0.41421356237309243
0
LWPOLYLINE
5
101
100
AcDbEntity
8
0
100
AcDbPolyline
90
6
70
1
43
0.0
10
284.05172066823837
20
-80.050000472348145
10
280.4432814858032
20
-80.050000472348145
10
278.63906189458561
20
-83.175000472348145
10
280.4432814858032
20
-86.300000472348145
10
284.05172066823837
20
-86.300000472348145
10
285.85594025945596
20
-83.175000472348145
0
LWPOLYLINE
5
102
100
AcDbEntity
8
0
100
AcDbPolyline
90
6
70
1
43
0.0
10
135.82741608146821
20
-86.300000472348145
10
139.43585526390342
20
-86.300000472348145
10
141.24007485512095
20
-83.175000472348145
10
139.43585526390342
20
-80.050000472348145
10
135.82741608146821
20
-80.050000472348145
10
134.02319649025065
20
-83.175000472348145
0
LWPOLYLINE
5
103
100
AcDbEntity
8
0
100
AcDbPolyline
90
6
70
1
43
0.0
10
-3.3757905492140114
20
6.9999603113101649
10
-5.1800101404315937
20
10.124960311310163
10
-8.7884493228667537
20
10.124960311310163
10
-10.592668914084332
20
6.9999603113101649
10
-8.7884493228667537
20
3.8749603113101645
10
-5.1800101404315937
20
3.8749603113101632
0
LWPOLYLINE
5
104
100
AcDbEntity
8
0
100
AcDbPolyline
90
6
70
1
43
0.0
10
-5.1800101404315937
20
-80.050000472348145
10
-8.7884493228667537
20
-80.050000472348145
10
-10.592668914084332
20
-83.175000472348145
10
-8.7884493228667537
20
-86.300000472348145
10
-5.1800101404315937
20
-86.300000472348145
10
-3.3757905492140114
20
-83.175000472348145
0
LWPOLYLINE
5
105
100
AcDbEntity
8
0
100
AcDbPolyline
90
6
70
1
43
0.0
10
134.02319649025065
20
6.9999603113101649
10
135.82741608146821
20
3.8749603113101645
10
139.43585526390342
20
3.8749603113101632
10
141.24007485512095
20
6.9999603113101649
10
139.43585526390342
20
10.124960311310163
10
135.82741608146821
20
10.124960311310163
0
LWPOLYLINE
5
106
100
AcDbEntity
8
0
100
AcDbPolyline
90
6
70
1
43
0.0
10
284.05172066823837
20
3.8749603113101632
10
285.85594025945596
20
6.9999603113101649
10
284.05172066823837
20
10.124960311310163
10
280.4432814858032
20
10.124960311310163
10
278.63906189458561
20
6.9999603113101649
10
280.4432814858032
20
3.8749603113101645
0
ENDSEC
0
SECTION
2
OBJECTS
0
DICTIONARY
5
C
100
AcDbDictionary
3
ACAD_GROUP
350
D
3
ACAD_MLINESTYLE
350
17
0
DICTIONARY
5
D
100
AcDbDictionary
0
DICTIONARY
5
1A
330
C
100
AcDbDictionary
0
DICTIONARY
5
17
100
AcDbDictionary
0
ENDSEC
0
EOF
