0
SECTION
2
HEADER
9
$INSUNITS
70
4
9
$ACADVER
1
AC1014
9
$HANDSEED
5
FFFF
0
ENDSEC
0
SECTION
2
TABLES
0
TABLE
2
VPORT
5
8
100
AcDbSymbolTable
0
ENDTAB
0
TABLE
2
LTYPE
5
5
100
AcDbSymbolTable
0
LTYPE
5
14
100
AcDbSymbolTableRecord
100
AcDbLinetypeTableRecord
2
BYBLOCK
70
0
0
LTYPE
5
15
100
AcDbSymbolTableRecord
100
AcDbLinetypeTableRecord
2
BYLAYER
70
0
0
LTYPE
5
16
100
AcDbSymbolTableRecord
100
AcDbLinetypeTableRecord
2
DASHED
70
0
3
Dashed __ __ __ __ __ __ __ __ __ __ __ __ __ _
72
65
73
2
40
0.75
49
0.5
74
0
49
-0.25
74
0
0
ENDTAB
0
TABLE
2
LAYER
5
2
100
AcDbSymbolTable
70
2
0
LAYER
5
50
100
AcDbSymbolTableRecord
100
AcDbLayerTableRecord
2
0
70
0
62
7
6
CONTINUOUS
0
ENDTAB
0
TABLE
2
STYLE
5
3
100
AcDbSymbolTable
70
1
0
STYLE
5
11
100
AcDbSymbolTableRecord
100
AcDbTextStyleTableRecord
2
STANDARD
70
0
0
ENDTAB
0
TABLE
2
VIEW
5
6
100
AcDbSymbolTable
70
0
0
ENDTAB
0
TABLE
2
UCS
5
7
100
AcDbSymbolTable
70
0
0
ENDTAB
0
TABLE
2
APPID
5
9
100
AcDbSymbolTable
70
2
0
APPID
5
12
100
AcDbSymbolTableRecord
100
AcDbRegAppTableRecord
2
ACAD
70
0
0
ENDTAB
0
TABLE
2
DIMSTYLE
5
A
100
AcDbSymbolTable
70
1
0
ENDTAB
0
TABLE
2
BLOCK_RECORD
5
1
100
AcDbSymbolTable
70
1
0
BLOCK_RECORD
5
1F
100
AcDbSymbolTableRecord
100
AcDbBlockTableRecord
2
*MODEL_SPACE
0
BLOCK_RECORD
5
1B
100
AcDbSymbolTableRecord
100
AcDbBlockTableRecord
2
*PAPER_SPACE
0
ENDTAB
0
ENDSEC
0
SECTION
2
BLOCKS
0
BLOCK
5
20
100
AcDbEntity
100
AcDbBlockBegin
2
*MODEL_SPACE
0
ENDBLK
5
21
100
AcDbEntity
100
AcDbBlockEnd
0
BLOCK
5
1C
100
AcDbEntity
100
AcDbBlockBegin
2
*PAPER_SPACE
0
ENDBLK
5
1D
100
AcDbEntity
100
AcDbBlockEnd
0
ENDSEC
0
SECTION
2
ENTITIES
0
LWPOLYLINE
5
100
100
AcDbEntity
8
0
100
AcDbPolyline
90
8
70
1
43
0.0
10
2.5249999999999999
20
-16.024999999999999
42
0.41421356237309503
10
3.0249999999999999
20
-16.525000000000002
10
16.024999999999999
20
-16.525000000000002
42
0.41421356237309503
10
16.525000000000002
20
-16.024999999999999
10
16.525000000000002
20
-3.0249999999999999
42
0.41421356237309503
10
16.024999999999999
20
-2.5249999999999999
10
3.0249999999999999
20
-2.5249999999999999
42
0.41421356237309503
10
2.5249999999999999
20
-3.0249999999999999
0
LWPOLYLINE
5
101
100
AcDbEntity
8
0
100
AcDbPolyline
90
8
70
1
43
0.0
10
49.197500000000005
20
-16.024999999999999
42
0.41421356237309503
10
49.697500000000005
20
-16.525000000000002
10
62.697500000000005
20
-16.525000000000002
42
0.41421356237309503
10
63.197499999999998
20
-16.024999999999999
10
63.197499999999998
20
-3.0249999999999999
42
0.41421356237309503
10
62.697500000000005
20
-2.5249999999999999
10
49.697500000000005
20
-2.5249999999999999
42
0.41421356237309503
10
49.197500000000005
20
-3.0249999999999999
0
LWPOLYLINE
5
102
100
AcDbEntity
8
0
100
AcDbPolyline
90
8
70
1
43
0.0
10
68.247500000000002
20
-16.024999999999999
42
0.41421356237309503
10
68.747500000000002
20
-16.525000000000002
10
81.747500000000016
20
-16.525000000000002
42
0.41421356237309503
10
82.247500000000016
20
-16.024999999999999
10
82.247500000000016
20
-3.0249999999999999
42
0.41421356237309503
10
81.747500000000016
20
-2.5249999999999999
10
68.747500000000002
20
-2.5249999999999999
42
0.41421356237309503
10
68.247500000000002
20
-3.0249999999999999
0
LWPOLYLINE
5
103
100
AcDbEntity
8
0
100
AcDbPolyline
90
8
70
1
43
0.0
10
87.297499999999985
20
-16.024999999999999
42
0.41421356237309503
10
87.797499999999999
20
-16.525000000000002
10
100.79750000000001
20
-16.525000000000002
42
0.41421356237309503
10
101.29750000000001
20
-16.024999999999999
10
101.29750000000001
20
-3.0249999999999999
42
0.41421356237309503
10
100.79750000000001
20
-2.5249999999999999
10
87.797499999999999
20
-2.5249999999999999
42
0.41421356237309503
10
87.297499999999985
20
-3.0249999999999999
0
LWPOLYLINE
5
104
100
AcDbEntity
8
0
100
AcDbPolyline
90
8
70
1
43
0.0
10
106.3475
20
-16.024999999999999
42
0.41421356237309503
10
106.84750000000001
20
-16.525000000000002
10
119.8475
20
-16.525000000000002
42
0.41421356237309503
10
120.34750000000001
20
-16.024999999999999
10
120.34750000000001
20
-3.0249999999999999
42
0.41421356237309503
10
119.8475
20
-2.5249999999999999
10
106.84750000000001
20
-2.5249999999999999
42
0.41421356237309503
10
106.3475
20
-3.0249999999999999
0
LWPOLYLINE
5
105
100
AcDbEntity
8
0
100
AcDbPolyline
90
8
70
1
43
0.0
10
125.39749999999999
20
-16.024999999999999
42
0.41421356237309503
10
125.89750000000001
20
-16.525000000000002
10
138.89750000000001
20
-16.525000000000002
42
0.41421356237309503
10
139.39750000000001
20
-16.024999999999999
10
139.39750000000001
20
-3.0249999999999999
42
0.41421356237309503
10
138.89750000000001
20
-2.5249999999999999
10
125.89750000000001
20
-2.5249999999999999
42
0.41421356237309503
10
125.39749999999999
20
-3.0249999999999999
0
LWPOLYLINE
5
106
100
AcDbEntity
8
0
100
AcDbPolyline
90
8
70
1
43
0.0
10
144.44749999999999
20
-16.024999999999999
42
0.41421356237309503
10
144.94749999999999
20
-16.525000000000002
10
157.94749999999999
20
-16.525000000000002
42
0.41421356237309503
10
158.44750000000002
20
-16.024999999999999
10
158.44750000000002
20
-3.0249999999999999
42
0.41421356237309503
10
157.94749999999999
20
-2.5249999999999999
10
144.94749999999999
20
-2.5249999999999999
42
0.41421356237309503
10
144.44749999999999
20
-3.0249999999999999
0
LWPOLYLINE
5
107
100
AcDbEntity
8
0
100
AcDbPolyline
90
8
70
1
43
0.0
10
163.4975
20
-16.024999999999999
42
0.41421356237309503
10
163.9975
20
-16.525000000000002
10
176.9975
20
-16.525000000000002
42
0.41421356237309503
10
177.49750000000003
20
-16.024999999999999
10
177.49750000000003
20
-3.0249999999999999
42
0.41421356237309503
10
176.9975
20
-2.5249999999999999
10
163.9975
20
-2.5249999999999999
42
0.41421356237309503
10
163.4975
20
-3.0249999999999999
0
LWPOLYLINE
5
108
100
AcDbEntity
8
0
100
AcDbPolyline
90
8
70
1
43
0.0
10
182.54750000000001
20
-16.024999999999999
42
0.41421356237309503
10
183.04750000000001
20
-16.525000000000002
10
196.04750000000001
20
-16.525000000000002
42
0.41421356237309503
10
196.54750000000004
20
-16.024999999999999
10
196.54750000000004
20
-3.0249999999999999
42
0.41421356237309503
10
196.04750000000001
20
-2.5249999999999999
10
183.04750000000001
20
-2.5249999999999999
42
0.41421356237309503
10
182.54750000000001
20
-3.0249999999999999
0
LWPOLYLINE
5
109
100
AcDbEntity
8
0
100
AcDbPolyline
90
8
70
1
43
0.0
10
201.5975
20
-16.024999999999999
42
0.41421356237309503
10
202.0975
20
-16.525000000000002
10
215.0975
20
-16.525000000000002
42
0.41421356237309503
10
215.59750000000003
20
-16.024999999999999
10
215.59750000000003
20
-3.0249999999999999
42
0.41421356237309503
10
215.0975
20
-2.5249999999999999
10
202.0975
20
-2.5249999999999999
42
0.41421356237309503
10
201.5975
20
-3.0249999999999999
0
LWPOLYLINE
5
110
100
AcDbEntity
8
0
100
AcDbPolyline
90
8
70
1
43
0.0
10
220.64750000000001
20
-16.024999999999999
42
0.41421356237309503
10
221.14750000000001
20
-16.525000000000002
10
234.14750000000001
20
-16.525000000000002
42
0.41421356237309503
10
234.64750000000004
20
-16.024999999999999
10
234.64750000000004
20
-3.0249999999999999
42
0.41421356237309503
10
234.14750000000001
20
-2.5249999999999999
10
221.14750000000001
20
-2.5249999999999999
42
0.41421356237309503
10
220.64750000000001
20
-3.0249999999999999
0
LWPOLYLINE
5
111
100
AcDbEntity
8
0
100
AcDbPolyline
90
8
70
1
43
0.0
10
239.69750000000002
20
-16.024999999999999
42
0.41421356237309503
10
240.19750000000002
20
-16.525000000000002
10
253.19749999999999
20
-16.525000000000002
42
0.41421356237309503
10
253.69749999999999
20
-16.024999999999999
10
253.69749999999999
20
-3.0249999999999999
42
0.41421356237309503
10
253.19749999999999
20
-2.5249999999999999
10
240.19750000000002
20
-2.5249999999999999
42
0.41421356237309503
10
239.69750000000002
20
-3.0249999999999999
0
LWPOLYLINE
5
112
100
AcDbEntity
8
0
100
AcDbPolyline
90
8
70
1
43
0.0
10
258.7475
20
-16.024999999999999
42
0.41421356237309503
10
259.24750000000006
20
-16.525000000000002
10
272.2475
20
-16.525000000000002
42
0.41421356237309503
10
272.7475
20
-16.024999999999999
10
272.7475
20
-3.0249999999999999
42
0.41421356237309503
10
272.2475
20
-2.5249999999999999
10
259.24750000000006
20
-2.5249999999999999
42
0.41421356237309503
10
258.7475
20
-3.0249999999999999
0
LWPOLYLINE
5
113
100
AcDbEntity
8
0
100
AcDbPolyline
90
8
70
1
43
0.0
10
2.5249999999999999
20
-35.075000000000003
42
0.41421356237309503
10
3.0249999999999999
20
-35.575000000000003
10
16.024999999999999
20
-35.575000000000003
42
0.41421356237309503
10
16.525000000000002
20
-35.075000000000003
10
16.525000000000002
20
-22.074999999999999
42
0.41421356237309503
10
16.024999999999999
20
-21.575000000000003
10
3.0249999999999999
20
-21.575000000000003
42
0.41421356237309503
10
2.5249999999999999
20
-22.074999999999999
0
LWPOLYLINE
5
114
100
AcDbEntity
8
0
100
AcDbPolyline
90
8
70
1
43
0.0
10
51.578750000000007
20
-35.075000000000003
42
0.41421356237309503
10
52.078750000000007
20
-35.575000000000003
10
65.078749999999999
20
-35.575000000000003
42
0.41421356237309503
10
65.578749999999999
20
-35.075000000000003
10
65.578749999999999
20
-22.074999999999999
42
0.41421356237309503
10
65.078749999999999
20
-21.575000000000003
10
52.078750000000007
20
-21.575000000000003
42
0.41421356237309503
10
51.578750000000007
20
-22.074999999999999
0
LWPOLYLINE
5
115
100
AcDbEntity
8
0
100
AcDbPolyline
90
8
70
1
43
0.0
10
73.010000000000005
20
-35.075000000000003
42
0.41421356237309503
10
73.510000000000005
20
-35.575000000000003
10
86.510000000000019
20
-35.575000000000003
42
0.41421356237309503
10
87.010000000000019
20
-35.075000000000003
10
87.010000000000019
20
-22.074999999999999
42
0.41421356237309503
10
86.510000000000019
20
-21.575000000000003
10
73.510000000000005
20
-21.575000000000003
42
0.41421356237309503
10
73.010000000000005
20
-22.074999999999999
0
LWPOLYLINE
5
116
100
AcDbEntity
8
0
100
AcDbPolyline
90
8
70
1
43
0.0
10
92.060000000000002
20
-35.075000000000003
42
0.41421356237309503
10
92.560000000000002
20
-35.575000000000003
10
105.56
20
-35.575000000000003
42
0.41421356237309503
10
106.06000000000002
20
-35.075000000000003
10
106.06000000000002
20
-22.074999999999999
42
0.41421356237309503
10
105.56
20
-21.575000000000003
10
92.560000000000002
20
-21.575000000000003
42
0.41421356237309503
10
92.060000000000002
20
-22.074999999999999
0
LWPOLYLINE
5
117
100
AcDbEntity
8
0
100
AcDbPolyline
90
8
70
1
43
0.0
10
111.11000000000001
20
-35.075000000000003
42
0.41421356237309503
10
111.61000000000001
20
-35.575000000000003
10
124.61
20
-35.575000000000003
42
0.41421356237309503
10
125.11000000000001
20
-35.075000000000003
10
125.11000000000001
20
-22.074999999999999
42
0.41421356237309503
10
124.61
20
-21.575000000000003
10
111.61000000000001
20
-21.575000000000003
42
0.41421356237309503
10
111.11000000000001
20
-22.074999999999999
0
LWPOLYLINE
5
118
100
AcDbEntity
8
0
100
AcDbPolyline
90
8
70
1
43
0.0
10
130.16
20
-35.075000000000003
42
0.41421356237309503
10
130.66
20
-35.575000000000003
10
143.66
20
-35.575000000000003
42
0.41421356237309503
10
144.16
20
-35.075000000000003
10
144.16
20
-22.074999999999999
42
0.41421356237309503
10
143.66
20
-21.575000000000003
10
130.66
20
-21.575000000000003
42
0.41421356237309503
10
130.16
20
-22.074999999999999
0
LWPOLYLINE
5
119
100
AcDbEntity
8
0
100
AcDbPolyline
90
8
70
1
43
0.0
10
149.21000000000001
20
-35.075000000000003
42
0.41421356237309503
10
149.71000000000001
20
-35.575000000000003
10
162.71000000000001
20
-35.575000000000003
42
0.41421356237309503
10
163.21000000000001
20
-35.075000000000003
10
163.21000000000001
20
-22.074999999999999
42
0.41421356237309503
10
162.71000000000001
20
-21.575000000000003
10
149.71000000000001
20
-21.575000000000003
42
0.41421356237309503
10
149.21000000000001
20
-22.074999999999999
0
LWPOLYLINE
5
120
100
AcDbEntity
8
0
100
AcDbPolyline
90
8
70
1
43
0.0
10
168.25999999999999
20
-35.075000000000003
42
0.41421356237309503
10
168.76000000000002
20
-35.575000000000003
10
181.75999999999999
20
-35.575000000000003
42
0.41421356237309503
10
182.25999999999999
20
-35.075000000000003
10
182.25999999999999
20
-22.074999999999999
42
0.41421356237309503
10
181.75999999999999
20
-21.575000000000003
10
168.76000000000002
20
-21.575000000000003
42
0.41421356237309503
10
168.25999999999999
20
-22.074999999999999
0
LWPOLYLINE
5
121
100
AcDbEntity
8
0
100
AcDbPolyline
90
8
70
1
43
0.0
10
187.31
20
-35.075000000000003
42
0.41421356237309503
10
187.81000000000003
20
-35.575000000000003
10
200.81000000000003
20
-35.575000000000003
42
0.41421356237309503
10
201.31000000000003
20
-35.075000000000003
10
201.31000000000003
20
-22.074999999999999
42
0.41421356237309503
10
200.81000000000003
20
-21.575000000000003
10
187.81000000000003
20
-21.575000000000003
42
0.41421356237309503
10
187.31
20
-22.074999999999999
0
LWPOLYLINE
5
122
100
AcDbEntity
8
0
100
AcDbPolyline
90
8
70
1
43
0.0
10
206.36000000000001
20
-35.075000000000003
42
0.41421356237309503
10
206.86000000000004
20
-35.575000000000003
10
219.86000000000004
20
-35.575000000000003
42
0.41421356237309503
10
220.36000000000004
20
-35.075000000000003
10
220.36000000000004
20
-22.074999999999999
42
0.41421356237309503
10
219.86000000000004
20
-21.575000000000003
10
206.86000000000004
20
-21.575000000000003
42
0.41421356237309503
10
206.36000000000001
20
-22.074999999999999
0
LWPOLYLINE
5
123
100
AcDbEntity
8
0
100
AcDbPolyline
90
8
70
1
43
0.0
10
225.41
20
-35.075000000000003
42
0.41421356237309503
10
225.91000000000003
20
-35.575000000000003
10
238.91000000000003
20
-35.575000000000003
42
0.41421356237309503
10
239.41000000000003
20
-35.075000000000003
10
239.41000000000003
20
-22.074999999999999
42
0.41421356237309503
10
238.91000000000003
20
-21.575000000000003
10
225.91000000000003
20
-21.575000000000003
42
0.41421356237309503
10
225.41
20
-22.074999999999999
0
LWPOLYLINE
5
124
100
AcDbEntity
8
0
100
AcDbPolyline
90
8
70
1
43
0.0
10
251.60374999999999
20
-35.075000000000003
42
0.41421356237309503
10
252.10374999999999
20
-35.575000000000003
10
265.10374999999999
20
-35.575000000000003
42
0.41421356237309503
10
265.60374999999999
20
-35.075000000000003
10
265.60374999999999
20
-22.074999999999999
42
0.41421356237309503
10
265.10374999999999
20
-21.575000000000003
10
252.10374999999999
20
-21.575000000000003
42
0.41421356237309503
10
251.60374999999999
20
-22.074999999999999
0
LWPOLYLINE
5
125
100
AcDbEntity
8
0
100
AcDbPolyline
90
8
70
1
43
0.0
10
2.5249999999999999
20
-54.125000000000007
42
0.41421356237309503
10
3.0249999999999999
20
-54.625
10
16.024999999999999
20
-54.625
42
0.41421356237309503
10
16.525000000000002
20
-54.125000000000007
10
16.525000000000002
20
-41.125
42
0.41421356237309503
10
16.024999999999999
20
-40.625
10
3.0249999999999999
20
-40.625
42
0.41421356237309503
10
2.5249999999999999
20
-41.125
0
LWPOLYLINE
5
126
100
AcDbEntity
8
0
100
AcDbPolyline
90
8
70
1
43
0.0
10
56.341250000000009
20
-54.125000000000007
42
0.41421356237309503
10
56.841250000000009
20
-54.625
10
69.841250000000002
20
-54.625
42
0.41421356237309503
10
70.341250000000002
20
-54.125000000000007
10
70.341250000000002
20
-41.125
42
0.41421356237309503
10
69.841250000000002
20
-40.625
10
56.841250000000009
20
-40.625
42
0.41421356237309503
10
56.341250000000009
20
-41.125
0
LWPOLYLINE
5
127
100
AcDbEntity
8
0
100
AcDbPolyline
90
8
70
1
43
0.0
10
82.534999999999997
20
-54.125000000000007
42
0.41421356237309503
10
83.034999999999997
20
-54.625
10
96.034999999999997
20
-54.625
42
0.41421356237309503
10
96.535000000000011
20
-54.125000000000007
10
96.535000000000011
20
-41.125
42
0.41421356237309503
10
96.034999999999997
20
-40.625
10
83.034999999999997
20
-40.625
42
0.41421356237309503
10
82.534999999999997
20
-41.125
0
LWPOLYLINE
5
128
100
AcDbEntity
8
0
100
AcDbPolyline
90
8
70
1
43
0.0
10
101.58500000000001
20
-54.125000000000007
42
0.41421356237309503
10
102.08500000000001
20
-54.625
10
115.08499999999999
20
-54.625
42
0.41421356237309503
10
115.58500000000001
20
-54.125000000000007
10
115.58500000000001
20
-41.125
42
0.41421356237309503
10
115.08499999999999
20
-40.625
10
102.08500000000001
20
-40.625
42
0.41421356237309503
10
101.58500000000001
20
-41.125
0
LWPOLYLINE
5
129
100
AcDbEntity
8
0
100
AcDbPolyline
90
8
70
1
43
0.0
10
120.63500000000002
20
-54.125000000000007
42
0.41421356237309503
10
121.13500000000002
20
-54.625
10
134.13499999999999
20
-54.625
42
0.41421356237309503
10
134.63499999999999
20
-54.125000000000007
10
134.63499999999999
20
-41.125
42
0.41421356237309503
10
134.13499999999999
20
-40.625
10
121.13500000000002
20
-40.625
42
0.41421356237309503
10
120.63500000000002
20
-41.125
0
LWPOLYLINE
5
130
100
AcDbEntity
8
0
100
AcDbPolyline
90
8
70
1
43
0.0
10
139.685
20
-54.125000000000007
42
0.41421356237309503
10
140.185
20
-54.625
10
153.185
20
-54.625
42
0.41421356237309503
10
153.685
20
-54.125000000000007
10
153.685
20
-41.125
42
0.41421356237309503
10
153.185
20
-40.625
10
140.185
20
-40.625
42
0.41421356237309503
10
139.685
20
-41.125
0
LWPOLYLINE
5
131
100
AcDbEntity
8
0
100
AcDbPolyline
90
8
70
1
43
0.0
10
158.73500000000001
20
-54.125000000000007
42
0.41421356237309503
10
159.23500000000001
20
-54.625
10
172.23500000000001
20
-54.625
42
0.41421356237309503
10
172.73500000000001
20
-54.125000000000007
10
172.73500000000001
20
-41.125
42
0.41421356237309503
10
172.23500000000001
20
-40.625
10
159.23500000000001
20
-40.625
42
0.41421356237309503
10
158.73500000000001
20
-41.125
0
LWPOLYLINE
5
132
100
AcDbEntity
8
0
100
AcDbPolyline
90
8
70
1
43
0.0
10
177.78500000000003
20
-54.125000000000007
42
0.41421356237309503
10
178.28500000000003
20
-54.625
10
191.285
20
-54.625
42
0.41421356237309503
10
191.785
20
-54.125000000000007
10
191.785
20
-41.125
42
0.41421356237309503
10
191.285
20
-40.625
10
178.28500000000003
20
-40.625
42
0.41421356237309503
10
177.78500000000003
20
-41.125
0
LWPOLYLINE
5
133
100
AcDbEntity
8
0
100
AcDbPolyline
90
8
70
1
43
0.0
10
196.83500000000004
20
-54.125000000000007
42
0.41421356237309503
10
197.33500000000004
20
-54.625
10
210.33500000000004
20
-54.625
42
0.41421356237309503
10
210.83500000000004
20
-54.125000000000007
10
210.83500000000004
20
-41.125
42
0.41421356237309503
10
210.33500000000004
20
-40.625
10
197.33500000000004
20
-40.625
42
0.41421356237309503
10
196.83500000000004
20
-41.125
0
LWPOLYLINE
5
134
100
AcDbEntity
8
0
100
AcDbPolyline
90
8
70
1
43
0.0
10
215.88499999999999
20
-54.125000000000007
42
0.41421356237309503
10
216.38499999999999
20
-54.625
10
229.38500000000002
20
-54.625
42
0.41421356237309503
10
229.88500000000002
20
-54.125000000000007
10
229.88500000000002
20
-41.125
42
0.41421356237309503
10
229.38500000000002
20
-40.625
10
216.38499999999999
20
-40.625
42
0.41421356237309503
10
215.88499999999999
20
-41.125
0
LWPOLYLINE
5
135
100
AcDbEntity
8
0
100
AcDbPolyline
90
8
70
1
43
0.0
10
234.935
20
-54.125000000000007
42
0.41421356237309503
10
235.435
20
-54.625
10
248.43500000000003
20
-54.625
42
0.41421356237309503
10
248.93500000000003
20
-54.125000000000007
10
248.93500000000003
20
-41.125
42
0.41421356237309503
10
248.43500000000003
20
-40.625
10
235.435
20
-40.625
42
0.41421356237309503
10
234.935
20
-41.125
0
LWPOLYLINE
5
136
100
AcDbEntity
8
0
100
AcDbPolyline
90
8
70
1
43
0.0
10
256.36624999999998
20
-54.125000000000007
42
0.41421356237309503
10
256.86624999999998
20
-54.625
10
269.86624999999998
20
-54.625
42
0.41421356237309503
10
270.36625000000004
20
-54.125000000000007
10
270.36625000000004
20
-41.125
42
0.41421356237309503
10
269.86624999999998
20
-40.625
10
256.86624999999998
20
-40.625
42
0.41421356237309503
10
256.36624999999998
20
-41.125
0
LWPOLYLINE
5
137
100
AcDbEntity
8
0
100
AcDbPolyline
90
8
70
1
43
0.0
10
2.5249999999999999
20
-73.174999999999997
42
0.41421356237309503
10
3.0249999999999999
20
-73.674999999999997
10
16.024999999999999
20
-73.674999999999997
42
0.41421356237309503
10
16.525000000000002
20
-73.174999999999997
10
16.525000000000002
20
-60.174999999999997
42
0.41421356237309503
10
16.024999999999999
20
-59.675000000000004
10
3.0249999999999999
20
-59.675000000000004
42
0.41421356237309503
10
2.5249999999999999
20
-60.174999999999997
0
LWPOLYLINE
5
138
100
AcDbEntity
8
0
100
AcDbPolyline
90
12
70
1
43
0.0
10
68.247500000000002
20
-73.174999999999997
42
0.41421356237309503
10
68.747500000000002
20
-73.674999999999997
10
73.510000000000005
20
-73.674999999999997
10
81.747500000000016
20
-73.674999999999997
10
86.510000000000019
20
-73.674999999999997
42
0.41421356237309503
10
87.010000000000019
20
-73.174999999999997
10
87.010000000000019
20
-60.174999999999997
42
0.41421356237309503
10
86.510000000000019
20
-59.675000000000004
10
81.747500000000016
20
-59.675000000000004
10
73.510000000000005
20
-59.675000000000004
10
68.747500000000002
20
-59.675000000000004
42
0.41421356237309503
10
68.247500000000002
20
-60.174999999999997
0
ARC
5
139
100
AcDbEntity
8
0
100
AcDbCircle
10
92.560000000000002
20
-73.174999999999997
30
0
40
0.50000000000000711
210
0
220
0
230
1
100
AcDbArc
50
180
51
270
0
ARC
5
140
100
AcDbEntity
8
0
100
AcDbCircle
10
92.560000000000002
20
-60.174999999999997
30
0
40
0.49999999999999822
210
0
220
-0
230
1
100
AcDbArc
50
90
51
180
0
LINE
5
141
100
AcDbEntity
8
0
100
AcDbLine
10
92.560000000000002
20
-73.674999999999997
30
0
11
99.947500000000019
21
-73.674999999999997
31
0
0
LINE
5
142
100
AcDbEntity
8
0
100
AcDbLine
10
99.947500000000019
20
-59.675000000000004
30
0
11
92.560000000000002
21
-59.675000000000004
31
0
0
LINE
5
143
100
AcDbEntity
8
0
100
AcDbLine
10
92.060000000000002
20
-60.174999999999997
30
0
11
92.060000000000002
21
-73.174999999999997
31
0
0
LINE
5
144
100
AcDbEntity
8
0
100
AcDbLine
10
154.4725
20
-73.674999999999997
30
0
11
166.96575000000001
21
-73.674999999999997
31
0
0
LINE
5
145
100
AcDbEntity
8
0
100
AcDbLine
10
215.1225
20
-77.174999999999997
30
0
11
221.12250000000003
21
-77.174999999999997
31
0
0
LINE
5
146
100
AcDbEntity
8
0
100
AcDbLine
10
100.82250000000002
20
-77.174999999999997
30
0
11
106.82250000000002
21
-77.174999999999997
31
0
0
ARC
5
147
100
AcDbEntity
8
0
100
AcDbCircle
10
141.27875
20
-73.174999999999997
30
0
40
0.49999999999999822
210
0
220
0
230
1
100
AcDbArc
50
-90
51
0
0
LINE
5
148
100
AcDbEntity
8
0
100
AcDbLine
10
128.27875
20
-73.674999999999997
30
0
11
141.27875
21
-73.674999999999997
31
0
0
LINE
5
149
100
AcDbEntity
8
0
100
AcDbLine
10
143.71674999999999
20
-77.174999999999997
30
0
11
149.71674999999999
21
-77.174999999999997
31
0
0
LINE
5
150
100
AcDbEntity
8
0
100
AcDbLine
10
119.84075000000001
20
-77.174999999999997
30
0
11
125.84075
21
-77.174999999999997
31
0
0
LINE
5
151
100
AcDbEntity
8
0
100
AcDbLine
10
175.90375
20
-73.674999999999997
30
0
11
188.90375000000003
21
-73.674999999999997
31
0
0
LINE
5
152
100
AcDbEntity
8
0
100
AcDbLine
10
191.34174999999999
20
-77.174999999999997
30
0
11
197.34174999999999
21
-77.174999999999997
31
0
0
LINE
5
153
100
AcDbEntity
8
0
100
AcDbLine
10
167.46575000000004
20
-77.174999999999997
30
0
11
173.46575000000001
21
-77.174999999999997
31
0
0
ARC
5
154
100
AcDbEntity
8
0
100
AcDbCircle
10
229.38500000000002
20
-73.174999999999997
30
0
40
0.49999999999999822
210
0
220
0
230
1
100
AcDbArc
50
-90
51
0
0
ARC
5
155
100
AcDbEntity
8
0
100
AcDbCircle
10
229.38500000000002
20
-60.174999999999997
30
0
40
0.50000000000000711
210
0
220
0
230
1
100
AcDbArc
50
0
51
90
0
LINE
5
156
100
AcDbEntity
8
0
100
AcDbLine
10
221.6225
20
-73.674999999999997
30
0
11
229.38500000000002
21
-73.674999999999997
31
0
0
LINE
5
157
100
AcDbEntity
8
0
100
AcDbLine
10
229.38500000000002
20
-59.675000000000004
30
0
11
221.9975
21
-59.675000000000004
31
0
0
LINE
5
158
100
AcDbEntity
8
0
100
AcDbLine
10
229.88500000000002
20
-73.174999999999997
30
0
11
229.88500000000002
21
-60.174999999999997
31
0
0
LWPOLYLINE
5
159
100
AcDbEntity
8
0
100
AcDbPolyline
90
12
70
1
43
0.0
10
234.935
20
-73.174999999999997
42
0.41421356237309503
10
235.435
20
-73.674999999999997
10
240.19750000000002
20
-73.674999999999997
10
248.43500000000003
20
-73.674999999999997
10
253.19749999999999
20
-73.674999999999997
42
0.41421356237309503
10
253.69749999999999
20
-73.174999999999997
10
253.69749999999999
20
-60.174999999999997
42
0.41421356237309503
10
253.19749999999999
20
-59.675000000000004
10
248.43500000000003
20
-59.675000000000004
10
240.19750000000002
20
-59.675000000000004
10
235.435
20
-59.675000000000004
42
0.41421356237309503
10
234.935
20
-60.174999999999997
0
LINE
5
160
100
AcDbEntity
8
0
100
AcDbLine
10
119.46575000000001
20
-56.125000000000007
30
0
11
126.71575000000001
21
-56.125000000000007
31
0
0
LINE
5
161
100
AcDbEntity
8
0
100
AcDbLine
10
126.71575000000001
20
-73.674999999999997
30
0
11
126.71575000000001
21
-77.174999999999997
31
0
0
LINE
5
162
100
AcDbEntity
8
0
100
AcDbLine
10
126.71575000000001
20
-77.174999999999997
30
0
11
119.46575000000001
21
-77.174999999999997
31
0
0
LINE
5
163
100
AcDbEntity
8
0
100
AcDbLine
10
118.96575000000001
20
-76.675000000000011
30
0
11
118.96575000000001
21
-73.674999999999997
31
0
0
LINE
5
164
100
AcDbEntity
8
0
100
AcDbLine
10
126.71575000000001
20
-56.125000000000007
30
0
11
143.21674999999999
21
-56.125000000000007
31
0
0
LINE
5
165
100
AcDbEntity
8
0
100
AcDbLine
10
143.21674999999999
20
-56.125000000000007
30
0
11
150.09174999999999
21
-56.125000000000007
31
0
0
LINE
5
166
100
AcDbEntity
8
0
100
AcDbLine
10
150.59174999999999
20
-73.674999999999997
30
0
11
150.59174999999999
21
-76.675000000000011
31
0
0
LINE
5
167
100
AcDbEntity
8
0
100
AcDbLine
10
150.09174999999999
20
-77.174999999999997
30
0
11
143.21674999999999
21
-77.174999999999997
31
0
0
LINE
5
168
100
AcDbEntity
8
0
100
AcDbLine
10
107.19750000000002
20
-56.125000000000007
30
0
11
100.44750000000002
21
-56.125000000000007
31
0
0
LINE
5
169
100
AcDbEntity
8
0
100
AcDbLine
10
100.44750000000002
20
-77.175000000000011
30
0
11
107.19750000000002
21
-77.174999999999997
31
0
0
LINE
5
170
100
AcDbEntity
8
0
100
AcDbLine
10
107.69750000000002
20
-76.675000000000011
30
0
11
107.69750000000002
21
-73.674999999999997
31
0
0
LINE
5
171
100
AcDbEntity
8
0
100
AcDbLine
10
167.09075000000007
20
-56.125000000000007
30
0
11
174.34075000000004
21
-56.125000000000007
31
0
0
LINE
5
172
100
AcDbEntity
8
0
100
AcDbLine
10
174.34075000000004
20
-73.674999999999997
30
0
11
174.34075000000004
21
-76.675000000000011
31
0
0
LINE
5
173
100
AcDbEntity
8
0
100
AcDbLine
10
173.84075000000001
20
-77.174999999999983
30
0
11
167.09075000000007
21
-77.174999999999997
31
0
0
LINE
5
174
100
AcDbEntity
8
0
100
AcDbLine
10
166.59075000000001
20
-76.675000000000011
30
0
11
166.59075000000004
21
-73.674999999999997
31
0
0
LINE
5
175
100
AcDbEntity
8
0
100
AcDbLine
10
174.34075000000004
20
-56.125000000000007
30
0
11
190.46674999999996
21
-56.125000000000007
31
0
0
LWPOLYLINE
5
176
100
AcDbEntity
8
0
100
AcDbPolyline
90
2
70
1
43
0.0
10
190.46674999999996
20
-73.674999999999997
10
174.34075000000004
20
-73.674999999999997
0
LINE
5
177
100
AcDbEntity
8
0
100
AcDbLine
10
190.46674999999996
20
-56.125000000000007
30
0
11
197.71674999999993
21
-56.125000000000007
31
0
0
LINE
5
178
100
AcDbEntity
8
0
100
AcDbLine
10
198.21674999999996
20
-73.674999999999997
30
0
11
198.21674999999996
21
-76.675000000000011
31
0
0
LINE
5
179
100
AcDbEntity
8
0
100
AcDbLine
10
197.71674999999993
20
-77.174999999999983
30
0
11
190.96674999999999
21
-77.174999999999997
31
0
0
LINE
5
180
100
AcDbEntity
8
0
100
AcDbLine
10
190.46674999999993
20
-76.675000000000011
30
0
11
190.46674999999996
21
-73.674999999999997
31
0
0
LINE
5
181
100
AcDbEntity
8
0
100
AcDbLine
10
142.84174999999999
20
-73.674999999999997
30
0
11
142.84174999999999
21
-76.675000000000011
31
0
0
LINE
5
182
100
AcDbEntity
8
0
100
AcDbLine
10
143.34174999999999
20
-77.175000000000011
30
0
11
143.21674999999999
21
-77.174999999999997
31
0
0
LWPOLYLINE
5
183
100
AcDbEntity
8
0
100
AcDbPolyline
90
2
70
1
43
0.0
10
142.84174999999999
20
-73.674999999999997
10
126.71575000000001
20
-73.674999999999997
0
LINE
5
184
100
AcDbEntity
8
0
100
AcDbLine
10
214.7475
20
-56.125000000000007
30
0
11
221.49749999999997
21
-56.125000000000007
31
0
0
LINE
5
185
100
AcDbEntity
8
0
100
AcDbLine
10
221.49749999999997
20
-77.174999999999983
30
0
11
214.7475
21
-77.174999999999997
31
0
0
LINE
5
186
100
AcDbEntity
8
0
100
AcDbLine
10
214.24749999999995
20
-76.675000000000011
30
0
11
214.24749999999995
21
-73.674999999999997
31
0
0
ARC
5
187
100
AcDbEntity
8
0
100
AcDbCircle
10
221.4975
20
-56.625
30
0
40
0.50000000000000711
210
-0
220
0
230
1
100
AcDbArc
50
0
51
90.000000000003254
0
ARC
5
188
100
AcDbEntity
8
0
100
AcDbCircle
10
214.74749999999997
20
-76.675000000000011
30
0
40
0.50000000000000711
210
0
220
0
230
1
100
AcDbArc
50
180
51
270.00000000000324
0
ARC
5
189
100
AcDbEntity
8
0
100
AcDbCircle
10
221.4975
20
-76.675000000000011
30
0
40
0.49999999999997158
210
0
220
0
230
1
100
AcDbArc
50
-90.000000000003254
51
0
0
ARC
5
190
100
AcDbEntity
8
0
100
AcDbCircle
10
197.71674999999999
20
-76.675000000000011
30
0
40
0.49999999999997158
210
0
220
0
230
1
100
AcDbArc
50
-90.000000000006523
51
0
0
ARC
5
191
100
AcDbEntity
8
0
100
AcDbCircle
10
190.96674999999993
20
-76.675000000000011
30
0
40
0.50000000000000711
210
0
220
-0
230
1
100
AcDbArc
50
180
51
270.00000000000648
0
ARC
5
192
100
AcDbEntity
8
0
100
AcDbCircle
10
173.84075000000007
20
-76.675000000000011
30
0
40
0.49999999999997158
210
0
220
0
230
1
100
AcDbArc
50
-90.000000000006523
51
0
0
ARC
5
193
100
AcDbEntity
8
0
100
AcDbCircle
10
150.09175000000002
20
-76.675000000000011
30
0
40
0.49999999999998934
210
0
220
0
230
1
100
AcDbArc
50
-90.000000000003254
51
0
0
ARC
5
194
100
AcDbEntity
8
0
100
AcDbCircle
10
143.34175000000002
20
-76.674999999999983
30
0
40
0.50000000000002487
210
0
220
0
230
1
100
AcDbArc
50
180
51
269.99999999999676
0
ARC
5
195
100
AcDbEntity
8
0
100
AcDbCircle
10
119.46575000000003
20
-56.625000000000028
30
0
40
0.50000000000002487
210
0
220
0
230
1
100
AcDbArc
50
90.000000000001634
51
180
0
ARC
5
196
100
AcDbEntity
8
0
100
AcDbCircle
10
119.46575000000003
20
-76.674999999999983
30
0
40
0.50000000000000711
210
0
220
0
230
1
100
AcDbArc
50
180
51
269.99999999999835
0
ARC
5
197
100
AcDbEntity
8
0
100
AcDbCircle
10
107.19750000000003
20
-76.675000000000011
30
0
40
0.49999999999999822
210
0
220
0
230
1
100
AcDbArc
50
-90.000000000001634
51
0
0
ARC
5
198
100
AcDbEntity
8
0
100
AcDbCircle
10
100.44750000000005
20
-56.625000000000028
30
0
40
0.50000000000002487
210
0
220
0
230
1
100
AcDbArc
50
90.000000000003254
51
180
0
ARC
5
199
100
AcDbEntity
8
0
100
AcDbCircle
10
100.44750000000005
20
-76.674999999999983
30
0
40
0.50000000000002487
210
0
220
0
230
1
100
AcDbArc
50
180
51
269.99999999999676
0
LINE
5
200
100
AcDbEntity
8
0
100
AcDbLine
10
214.7475
20
-56.125000000000007
30
0
11
107.69750000000002
21
-56.125000000000007
31
0
0
LINE
5
201
100
AcDbEntity
8
0
100
AcDbLine
10
99.947500000000019
20
-56.625000000000007
30
0
11
99.947500000000019
21
-59.675000000000004
31
0
0
LINE
5
202
100
AcDbEntity
8
0
100
AcDbLine
10
99.947500000000019
20
-73.674999999999997
30
0
11
99.947500000000019
21
-76.675000000000011
31
0
0
LINE
5
203
100
AcDbEntity
8
0
100
AcDbLine
10
107.69750000000002
20
-56.125000000000007
30
0
11
107.19750000000002
21
-56.125000000000007
31
0
0
LINE
5
204
100
AcDbEntity
8
0
100
AcDbLine
10
107.69750000000002
20
-73.674999999999997
30
0
11
118.96575000000001
21
-73.674999999999997
31
0
0
LINE
5
205
100
AcDbEntity
8
0
100
AcDbLine
10
150.59174999999999
20
-73.674999999999997
30
0
11
166.59075000000004
21
-73.674999999999997
31
0
0
ARC
5
206
100
AcDbEntity
8
0
100
AcDbCircle
10
167.09075000000001
20
-76.675000000000011
30
0
40
0.50000000000000711
210
0
220
-0
230
1
100
AcDbArc
50
180
51
270.00000000000648
0
LINE
5
207
100
AcDbEntity
8
0
100
AcDbLine
10
221.9975
20
-56.625000000000007
30
0
11
221.9975
21
-59.675000000000004
31
0
0
LINE
5
208
100
AcDbEntity
8
0
100
AcDbLine
10
221.99749999999997
20
-73.674999999999997
30
0
11
221.99749999999997
21
-76.675000000000011
31
0
0
LINE
5
209
100
AcDbEntity
8
0
100
AcDbLine
10
198.21674999999996
20
-73.674999999999997
30
0
11
214.24749999999995
21
-73.674999999999997
31
0
0
LINE
5
210
100
AcDbEntity
8
0
100
AcDbLine
10
214.6225
20
-73.674999999999997
30
0
11
214.7475
21
-73.674999999999997
31
0
0
ENDSEC
0
SECTION
2
OBJECTS
0
DICTIONARY
5
C
100
AcDbDictionary
3
ACAD_GROUP
350
D
3
ACAD_MLINESTYLE
350
17
0
DICTIONARY
5
D
100
AcDbDictionary
0
DICTIONARY
5
1A
330
C
100
AcDbDictionary
0
DICTIONARY
5
17
100
AcDbDictionary
0
ENDSEC
0
EOF
