0
SECTION
2
HEADER
9
$INSUNITS
70
4
0
ENDSEC
0
SECTION
2
TABLES
0
TABLE
2
LTYPE
0
LTYPE
72
65
70
64
2
CONTINUOUS
3
______
73
0
40
0
0
ENDTAB
0
TABLE
2
LAYER
0
ENDTAB
0
ENDSEC
0
SECTION
2
ENTITIES
0
ARC
8
0
10
3.025
20
-16.025
40
0.5
50
180
51
270
0
ARC
8
0
10
16.025
20
-16.025
40
0.5
50
270
51
0
0
ARC
8
0
10
16.025
20
-3.025
40
0.5
50
0
51
90
0
ARC
8
0
10
3.025
20
-3.025
40
0.5
50
90
51
180
0
LINE
8
0
10
3.025
20
-16.525
11
16.025
21
-16.525
0
LINE
8
0
10
16.025
20
-2.525
11
3.025
21
-2.525
0
LINE
8
0
10
16.525
20
-16.025
11
16.525
21
-3.025
0
LINE
8
0
10
2.525
20
-3.025
11
2.525
21
-16.025
0
ARC
8
0
10
49.6975
20
-16.025
40
0.5
50
180
51
270
0
ARC
8
0
10
62.6975
20
-16.025
40
0.5
50
270
51
0
0
ARC
8
0
10
62.6975
20
-3.025
40
0.5
50
0
51
90
0
ARC
8
0
10
49.6975
20
-3.025
40
0.5
50
90
51
180
0
LINE
8
0
10
49.6975
20
-16.525
11
62.6975
21
-16.525
0
LINE
8
0
10
62.6975
20
-2.525
11
49.6975
21
-2.525
0
LINE
8
0
10
63.1975
20
-16.025
11
63.1975
21
-3.025
0
LINE
8
0
10
49.1975
20
-3.025
11
49.1975
21
-16.025
0
ARC
8
0
10
68.7475
20
-16.025
40
0.5
50
180
51
270
0
ARC
8
0
10
81.7475
20
-16.025
40
0.5
50
270
51
0
0
ARC
8
0
10
81.7475
20
-3.025
40
0.5
50
0
51
90
0
ARC
8
0
10
68.7475
20
-3.025
40
0.5
50
90
51
180
0
LINE
8
0
10
68.7475
20
-16.525
11
81.7475
21
-16.525
0
LINE
8
0
10
81.7475
20
-2.525
11
68.7475
21
-2.525
0
LINE
8
0
10
82.2475
20
-16.025
11
82.2475
21
-3.025
0
LINE
8
0
10
68.2475
20
-3.025
11
68.2475
21
-16.025
0
ARC
8
0
10
87.7975
20
-16.025
40
0.5
50
180
51
270
0
ARC
8
0
10
100.7975
20
-16.025
40
0.5
50
270
51
0
0
ARC
8
0
10
100.7975
20
-3.025
40
0.5
50
0
51
90
0
ARC
8
0
10
87.7975
20
-3.025
40
0.5
50
90
51
180
0
LINE
8
0
10
87.7975
20
-16.525
11
100.7975
21
-16.525
0
LINE
8
0
10
100.7975
20
-2.525
11
87.7975
21
-2.525
0
LINE
8
0
10
101.2975
20
-16.025
11
101.2975
21
-3.025
0
LINE
8
0
10
87.2975
20
-3.025
11
87.2975
21
-16.025
0
ARC
8
0
10
106.8475
20
-16.025
40
0.5
50
180
51
270
0
ARC
8
0
10
119.8475
20
-16.025
40
0.5
50
270
51
0
0
ARC
8
0
10
119.8475
20
-3.025
40
0.5
50
0
51
90
0
ARC
8
0
10
106.8475
20
-3.025
40
0.5
50
90
51
180
0
LINE
8
0
10
106.8475
20
-16.525
11
119.8475
21
-16.525
0
LINE
8
0
10
119.8475
20
-2.525
11
106.8475
21
-2.525
0
LINE
8
0
10
120.3475
20
-16.025
11
120.3475
21
-3.025
0
LINE
8
0
10
106.3475
20
-3.025
11
106.3475
21
-16.025
0
ARC
8
0
10
125.8975
20
-16.025
40
0.5
50
180
51
270
0
ARC
8
0
10
138.8975
20
-16.025
40
0.5
50
270
51
0
0
ARC
8
0
10
138.8975
20
-3.025
40
0.5
50
0
51
90
0
ARC
8
0
10
125.8975
20
-3.025
40
0.5
50
90
51
180
0
LINE
8
0
10
125.8975
20
-16.525
11
138.8975
21
-16.525
0
LINE
8
0
10
138.8975
20
-2.525
11
125.8975
21
-2.525
0
LINE
8
0
10
139.3975
20
-16.025
11
139.3975
21
-3.025
0
LINE
8
0
10
125.3975
20
-3.025
11
125.3975
21
-16.025
0
ARC
8
0
10
144.9475
20
-16.025
40
0.5
50
180
51
270
0
ARC
8
0
10
157.9475
20
-16.025
40
0.5
50
270
51
0
0
ARC
8
0
10
157.9475
20
-3.025
40
0.5
50
0
51
90
0
ARC
8
0
10
144.9475
20
-3.025
40
0.5
50
90
51
180
0
LINE
8
0
10
144.9475
20
-16.525
11
157.9475
21
-16.525
0
LINE
8
0
10
157.9475
20
-2.525
11
144.9475
21
-2.525
0
LINE
8
0
10
158.4475
20
-16.025
11
158.4475
21
-3.025
0
LINE
8
0
10
144.4475
20
-3.025
11
144.4475
21
-16.025
0
ARC
8
0
10
163.9975
20
-16.025
40
0.5
50
180
51
270
0
ARC
8
0
10
176.9975
20
-16.025
40
0.5
50
270
51
0
0
ARC
8
0
10
176.9975
20
-3.025
40
0.5
50
0
51
90
0
ARC
8
0
10
163.9975
20
-3.025
40
0.5
50
90
51
180
0
LINE
8
0
10
163.9975
20
-16.525
11
176.9975
21
-16.525
0
LINE
8
0
10
176.9975
20
-2.525
11
163.9975
21
-2.525
0
LINE
8
0
10
177.4975
20
-16.025
11
177.4975
21
-3.025
0
LINE
8
0
10
163.4975
20
-3.025
11
163.4975
21
-16.025
0
ARC
8
0
10
183.0475
20
-16.025
40
0.5
50
180
51
270
0
ARC
8
0
10
196.0475
20
-16.025
40
0.5
50
270
51
0
0
ARC
8
0
10
196.0475
20
-3.025
40
0.5
50
0
51
90
0
ARC
8
0
10
183.0475
20
-3.025
40
0.5
50
90
51
180
0
LINE
8
0
10
183.0475
20
-16.525
11
196.0475
21
-16.525
0
LINE
8
0
10
196.0475
20
-2.525
11
183.0475
21
-2.525
0
LINE
8
0
10
196.5475
20
-16.025
11
196.5475
21
-3.025
0
LINE
8
0
10
182.5475
20
-3.025
11
182.5475
21
-16.025
0
ARC
8
0
10
202.0975
20
-16.025
40
0.5
50
180
51
270
0
ARC
8
0
10
215.0975
20
-16.025
40
0.5
50
270
51
0
0
ARC
8
0
10
215.0975
20
-3.025
40
0.5
50
0
51
90
0
ARC
8
0
10
202.0975
20
-3.025
40
0.5
50
90
51
180
0
LINE
8
0
10
202.0975
20
-16.525
11
215.0975
21
-16.525
0
LINE
8
0
10
215.0975
20
-2.525
11
202.0975
21
-2.525
0
LINE
8
0
10
215.5975
20
-16.025
11
215.5975
21
-3.025
0
LINE
8
0
10
201.5975
20
-3.025
11
201.5975
21
-16.025
0
ARC
8
0
10
221.1475
20
-16.025
40
0.5
50
180
51
270
0
ARC
8
0
10
234.1475
20
-16.025
40
0.5
50
270
51
0
0
ARC
8
0
10
234.1475
20
-3.025
40
0.5
50
0
51
90
0
ARC
8
0
10
221.1475
20
-3.025
40
0.5
50
90
51
180
0
LINE
8
0
10
221.1475
20
-16.525
11
234.1475
21
-16.525
0
LINE
8
0
10
234.1475
20
-2.525
11
221.1475
21
-2.525
0
LINE
8
0
10
234.6475
20
-16.025
11
234.6475
21
-3.025
0
LINE
8
0
10
220.6475
20
-3.025
11
220.6475
21
-16.025
0
ARC
8
0
10
240.1975
20
-16.025
40
0.5
50
180
51
270
0
ARC
8
0
10
253.1975
20
-16.025
40
0.5
50
270
51
0
0
ARC
8
0
10
253.1975
20
-3.025
40
0.5
50
0
51
90
0
ARC
8
0
10
240.1975
20
-3.025
40
0.5
50
90
51
180
0
LINE
8
0
10
240.1975
20
-16.525
11
253.1975
21
-16.525
0
LINE
8
0
10
253.1975
20
-2.525
11
240.1975
21
-2.525
0
LINE
8
0
10
253.6975
20
-16.025
11
253.6975
21
-3.025
0
LINE
8
0
10
239.6975
20
-3.025
11
239.6975
21
-16.025
0
ARC
8
0
10
259.2475
20
-16.025
40
0.5
50
180
51
270
0
ARC
8
0
10
272.2475
20
-16.025
40
0.5
50
270
51
0
0
ARC
8
0
10
272.2475
20
-3.025
40
0.5
50
0
51
90
0
ARC
8
0
10
259.2475
20
-3.025
40
0.5
50
90
51
180
0
LINE
8
0
10
259.2475
20
-16.525
11
272.2475
21
-16.525
0
LINE
8
0
10
272.2475
20
-2.525
11
259.2475
21
-2.525
0
LINE
8
0
10
272.7475
20
-16.025
11
272.7475
21
-3.025
0
LINE
8
0
10
258.7475
20
-3.025
11
258.7475
21
-16.025
0
ARC
8
0
10
3.025
20
-35.075
40
0.5
50
180
51
270
0
ARC
8
0
10
16.025
20
-35.075
40
0.5
50
270
51
0
0
ARC
8
0
10
16.025
20
-22.075
40
0.5
50
0
51
90
0
ARC
8
0
10
3.025
20
-22.075
40
0.5
50
90
51
180
0
LINE
8
0
10
3.025
20
-35.575
11
16.025
21
-35.575
0
LINE
8
0
10
16.025
20
-21.575
11
3.025
21
-21.575
0
LINE
8
0
10
16.525
20
-35.075
11
16.525
21
-22.075
0
LINE
8
0
10
2.525
20
-22.075
11
2.525
21
-35.075
0
ARC
8
0
10
52.07875
20
-35.075
40
0.5
50
180
51
270
0
ARC
8
0
10
65.07875
20
-35.075
40
0.5
50
270
51
0
0
ARC
8
0
10
65.07875
20
-22.075
40
0.5
50
0
51
90
0
ARC
8
0
10
52.07875
20
-22.075
40
0.5
50
90
51
180
0
LINE
8
0
10
52.07875
20
-35.575
11
65.07875
21
-35.575
0
LINE
8
0
10
65.07875
20
-21.575
11
52.07875
21
-21.575
0
LINE
8
0
10
65.57875
20
-35.075
11
65.57875
21
-22.075
0
LINE
8
0
10
51.57875
20
-22.075
11
51.57875
21
-35.075
0
ARC
8
0
10
73.51
20
-35.075
40
0.5
50
180
51
270
0
ARC
8
0
10
86.51
20
-35.075
40
0.5
50
270
51
0
0
ARC
8
0
10
86.51
20
-22.075
40
0.5
50
0
51
90
0
ARC
8
0
10
73.51
20
-22.075
40
0.5
50
90
51
180
0
LINE
8
0
10
73.51
20
-35.575
11
86.51
21
-35.575
0
LINE
8
0
10
86.51
20
-21.575
11
73.51
21
-21.575
0
LINE
8
0
10
87.01
20
-35.075
11
87.01
21
-22.075
0
LINE
8
0
10
73.01
20
-22.075
11
73.01
21
-35.075
0
ARC
8
0
10
92.56
20
-35.075
40
0.5
50
180
51
270
0
ARC
8
0
10
105.56
20
-35.075
40
0.5
50
270
51
0
0
ARC
8
0
10
105.56
20
-22.075
40
0.5
50
0
51
90
0
ARC
8
0
10
92.56
20
-22.075
40
0.5
50
90
51
180
0
LINE
8
0
10
92.56
20
-35.575
11
105.56
21
-35.575
0
LINE
8
0
10
105.56
20
-21.575
11
92.56
21
-21.575
0
LINE
8
0
10
106.06
20
-35.075
11
106.06
21
-22.075
0
LINE
8
0
10
92.06
20
-22.075
11
92.06
21
-35.075
0
ARC
8
0
10
111.61
20
-35.075
40
0.5
50
180
51
270
0
ARC
8
0
10
124.61
20
-35.075
40
0.5
50
270
51
0
0
ARC
8
0
10
124.61
20
-22.075
40
0.5
50
0
51
90
0
ARC
8
0
10
111.61
20
-22.075
40
0.5
50
90
51
180
0
LINE
8
0
10
111.61
20
-35.575
11
124.61
21
-35.575
0
LINE
8
0
10
124.61
20
-21.575
11
111.61
21
-21.575
0
LINE
8
0
10
125.11
20
-35.075
11
125.11
21
-22.075
0
LINE
8
0
10
111.11
20
-22.075
11
111.11
21
-35.075
0
ARC
8
0
10
130.66
20
-35.075
40
0.5
50
180
51
270
0
ARC
8
0
10
143.66
20
-35.075
40
0.5
50
270
51
0
0
ARC
8
0
10
143.66
20
-22.075
40
0.5
50
0
51
90
0
ARC
8
0
10
130.66
20
-22.075
40
0.5
50
90
51
180
0
LINE
8
0
10
130.66
20
-35.575
11
143.66
21
-35.575
0
LINE
8
0
10
143.66
20
-21.575
11
130.66
21
-21.575
0
LINE
8
0
10
144.16
20
-35.075
11
144.16
21
-22.075
0
LINE
8
0
10
130.16
20
-22.075
11
130.16
21
-35.075
0
ARC
8
0
10
149.71
20
-35.075
40
0.5
50
180
51
270
0
ARC
8
0
10
162.71
20
-35.075
40
0.5
50
270
51
0
0
ARC
8
0
10
162.71
20
-22.075
40
0.5
50
0
51
90
0
ARC
8
0
10
149.71
20
-22.075
40
0.5
50
90
51
180
0
LINE
8
0
10
149.71
20
-35.575
11
162.71
21
-35.575
0
LINE
8
0
10
162.71
20
-21.575
11
149.71
21
-21.575
0
LINE
8
0
10
163.21
20
-35.075
11
163.21
21
-22.075
0
LINE
8
0
10
149.21
20
-22.075
11
149.21
21
-35.075
0
ARC
8
0
10
168.76
20
-35.075
40
0.5
50
180
51
270
0
ARC
8
0
10
181.76
20
-35.075
40
0.5
50
270
51
0
0
ARC
8
0
10
181.76
20
-22.075
40
0.5
50
0
51
90
0
ARC
8
0
10
168.76
20
-22.075
40
0.5
50
90
51
180
0
LINE
8
0
10
168.76
20
-35.575
11
181.76
21
-35.575
0
LINE
8
0
10
181.76
20
-21.575
11
168.76
21
-21.575
0
LINE
8
0
10
182.26
20
-35.075
11
182.26
21
-22.075
0
LINE
8
0
10
168.26
20
-22.075
11
168.26
21
-35.075
0
ARC
8
0
10
187.81
20
-35.075
40
0.5
50
180
51
270
0
ARC
8
0
10
200.81
20
-35.075
40
0.5
50
270
51
0
0
ARC
8
0
10
200.81
20
-22.075
40
0.5
50
0
51
90
0
ARC
8
0
10
187.81
20
-22.075
40
0.5
50
90
51
180
0
LINE
8
0
10
187.81
20
-35.575
11
200.81
21
-35.575
0
LINE
8
0
10
200.81
20
-21.575
11
187.81
21
-21.575
0
LINE
8
0
10
201.31
20
-35.075
11
201.31
21
-22.075
0
LINE
8
0
10
187.31
20
-22.075
11
187.31
21
-35.075
0
ARC
8
0
10
206.86
20
-35.075
40
0.5
50
180
51
270
0
ARC
8
0
10
219.86
20
-35.075
40
0.5
50
270
51
0
0
ARC
8
0
10
219.86
20
-22.075
40
0.5
50
0
51
90
0
ARC
8
0
10
206.86
20
-22.075
40
0.5
50
90
51
180
0
LINE
8
0
10
206.86
20
-35.575
11
219.86
21
-35.575
0
LINE
8
0
10
219.86
20
-21.575
11
206.86
21
-21.575
0
LINE
8
0
10
220.36
20
-35.075
11
220.36
21
-22.075
0
LINE
8
0
10
206.36
20
-22.075
11
206.36
21
-35.075
0
ARC
8
0
10
225.91
20
-35.075
40
0.5
50
180
51
270
0
ARC
8
0
10
238.91
20
-35.075
40
0.5
50
270
51
0
0
ARC
8
0
10
238.91
20
-22.075
40
0.5
50
0
51
90
0
ARC
8
0
10
225.91
20
-22.075
40
0.5
50
90
51
180
0
LINE
8
0
10
225.91
20
-35.575
11
238.91
21
-35.575
0
LINE
8
0
10
238.91
20
-21.575
11
225.91
21
-21.575
0
LINE
8
0
10
239.41
20
-35.075
11
239.41
21
-22.075
0
LINE
8
0
10
225.41
20
-22.075
11
225.41
21
-35.075
0
ARC
8
0
10
252.10375
20
-35.075
40
0.5
50
180
51
270
0
ARC
8
0
10
265.10375
20
-35.075
40
0.5
50
270
51
0
0
ARC
8
0
10
265.10375
20
-22.075
40
0.5
50
0
51
90
0
ARC
8
0
10
252.10375
20
-22.075
40
0.5
50
90
51
180
0
LINE
8
0
10
252.10375
20
-35.575
11
265.10375
21
-35.575
0
LINE
8
0
10
265.10375
20
-21.575
11
252.10375
21
-21.575
0
LINE
8
0
10
265.60375
20
-35.075
11
265.60375
21
-22.075
0
LINE
8
0
10
251.60375
20
-22.075
11
251.60375
21
-35.075
0
ARC
8
0
10
3.025
20
-54.125
40
0.5
50
180
51
270
0
ARC
8
0
10
16.025
20
-54.125
40
0.5
50
270
51
0
0
ARC
8
0
10
16.025
20
-41.125
40
0.5
50
0
51
90
0
ARC
8
0
10
3.025
20
-41.125
40
0.5
50
90
51
180
0
LINE
8
0
10
3.025
20
-54.625
11
16.025
21
-54.625
0
LINE
8
0
10
16.025
20
-40.625
11
3.025
21
-40.625
0
LINE
8
0
10
16.525
20
-54.125
11
16.525
21
-41.125
0
LINE
8
0
10
2.525
20
-41.125
11
2.525
21
-54.125
0
ARC
8
0
10
56.84125
20
-54.125
40
0.5
50
180
51
270
0
ARC
8
0
10
69.84125
20
-54.125
40
0.5
50
270
51
0
0
ARC
8
0
10
69.84125
20
-41.125
40
0.5
50
0
51
90
0
ARC
8
0
10
56.84125
20
-41.125
40
0.5
50
90
51
180
0
LINE
8
0
10
56.84125
20
-54.625
11
69.84125
21
-54.625
0
LINE
8
0
10
69.84125
20
-40.625
11
56.84125
21
-40.625
0
LINE
8
0
10
70.34125
20
-54.125
11
70.34125
21
-41.125
0
LINE
8
0
10
56.34125
20
-41.125
11
56.34125
21
-54.125
0
ARC
8
0
10
83.035
20
-54.125
40
0.5
50
180
51
270
0
ARC
8
0
10
96.035
20
-54.125
40
0.5
50
270
51
0
0
ARC
8
0
10
96.035
20
-41.125
40
0.5
50
0
51
90
0
ARC
8
0
10
83.035
20
-41.125
40
0.5
50
90
51
180
0
LINE
8
0
10
83.035
20
-54.625
11
96.035
21
-54.625
0
LINE
8
0
10
96.035
20
-40.625
11
83.035
21
-40.625
0
LINE
8
0
10
96.535
20
-54.125
11
96.535
21
-41.125
0
LINE
8
0
10
82.535
20
-41.125
11
82.535
21
-54.125
0
ARC
8
0
10
102.085
20
-54.125
40
0.5
50
180
51
270
0
ARC
8
0
10
115.085
20
-54.125
40
0.5
50
270
51
0
0
ARC
8
0
10
115.085
20
-41.125
40
0.5
50
0
51
90
0
ARC
8
0
10
102.085
20
-41.125
40
0.5
50
90
51
180
0
LINE
8
0
10
102.085
20
-54.625
11
115.085
21
-54.625
0
LINE
8
0
10
115.085
20
-40.625
11
102.085
21
-40.625
0
LINE
8
0
10
115.585
20
-54.125
11
115.585
21
-41.125
0
LINE
8
0
10
101.585
20
-41.125
11
101.585
21
-54.125
0
ARC
8
0
10
121.135
20
-54.125
40
0.5
50
180
51
270
0
ARC
8
0
10
134.135
20
-54.125
40
0.5
50
270
51
0
0
ARC
8
0
10
134.135
20
-41.125
40
0.5
50
0
51
90
0
ARC
8
0
10
121.135
20
-41.125
40
0.5
50
90
51
180
0
LINE
8
0
10
121.135
20
-54.625
11
134.135
21
-54.625
0
LINE
8
0
10
134.135
20
-40.625
11
121.135
21
-40.625
0
LINE
8
0
10
134.635
20
-54.125
11
134.635
21
-41.125
0
LINE
8
0
10
120.635
20
-41.125
11
120.635
21
-54.125
0
ARC
8
0
10
140.185
20
-54.125
40
0.5
50
180
51
270
0
ARC
8
0
10
153.185
20
-54.125
40
0.5
50
270
51
0
0
ARC
8
0
10
153.185
20
-41.125
40
0.5
50
0
51
90
0
ARC
8
0
10
140.185
20
-41.125
40
0.5
50
90
51
180
0
LINE
8
0
10
140.185
20
-54.625
11
153.185
21
-54.625
0
LINE
8
0
10
153.185
20
-40.625
11
140.185
21
-40.625
0
LINE
8
0
10
153.685
20
-54.125
11
153.685
21
-41.125
0
LINE
8
0
10
139.685
20
-41.125
11
139.685
21
-54.125
0
ARC
8
0
10
159.235
20
-54.125
40
0.5
50
180
51
270
0
ARC
8
0
10
172.235
20
-54.125
40
0.5
50
270
51
0
0
ARC
8
0
10
172.235
20
-41.125
40
0.5
50
0
51
90
0
ARC
8
0
10
159.235
20
-41.125
40
0.5
50
90
51
180
0
LINE
8
0
10
159.235
20
-54.625
11
172.235
21
-54.625
0
LINE
8
0
10
172.235
20
-40.625
11
159.235
21
-40.625
0
LINE
8
0
10
172.735
20
-54.125
11
172.735
21
-41.125
0
LINE
8
0
10
158.735
20
-41.125
11
158.735
21
-54.125
0
ARC
8
0
10
178.285
20
-54.125
40
0.5
50
180
51
270
0
ARC
8
0
10
191.285
20
-54.125
40
0.5
50
270
51
0
0
ARC
8
0
10
191.285
20
-41.125
40
0.5
50
0
51
90
0
ARC
8
0
10
178.285
20
-41.125
40
0.5
50
90
51
180
0
LINE
8
0
10
178.285
20
-54.625
11
191.285
21
-54.625
0
LINE
8
0
10
191.285
20
-40.625
11
178.285
21
-40.625
0
LINE
8
0
10
191.785
20
-54.125
11
191.785
21
-41.125
0
LINE
8
0
10
177.785
20
-41.125
11
177.785
21
-54.125
0
ARC
8
0
10
197.335
20
-54.125
40
0.5
50
180
51
270
0
ARC
8
0
10
210.335
20
-54.125
40
0.5
50
270
51
0
0
ARC
8
0
10
210.335
20
-41.125
40
0.5
50
0
51
90
0
ARC
8
0
10
197.335
20
-41.125
40
0.5
50
90
51
180
0
LINE
8
0
10
197.335
20
-54.625
11
210.335
21
-54.625
0
LINE
8
0
10
210.335
20
-40.625
11
197.335
21
-40.625
0
LINE
8
0
10
210.835
20
-54.125
11
210.835
21
-41.125
0
LINE
8
0
10
196.835
20
-41.125
11
196.835
21
-54.125
0
ARC
8
0
10
216.385
20
-54.125
40
0.5
50
180
51
270
0
ARC
8
0
10
229.385
20
-54.125
40
0.5
50
270
51
0
0
ARC
8
0
10
229.385
20
-41.125
40
0.5
50
0
51
90
0
ARC
8
0
10
216.385
20
-41.125
40
0.5
50
90
51
180
0
LINE
8
0
10
216.385
20
-54.625
11
229.385
21
-54.625
0
LINE
8
0
10
229.385
20
-40.625
11
216.385
21
-40.625
0
LINE
8
0
10
229.885
20
-54.125
11
229.885
21
-41.125
0
LINE
8
0
10
215.885
20
-41.125
11
215.885
21
-54.125
0
ARC
8
0
10
235.435
20
-54.125
40
0.5
50
180
51
270
0
ARC
8
0
10
248.435
20
-54.125
40
0.5
50
270
51
0
0
ARC
8
0
10
248.435
20
-41.125
40
0.5
50
0
51
90
0
ARC
8
0
10
235.435
20
-41.125
40
0.5
50
90
51
180
0
LINE
8
0
10
235.435
20
-54.625
11
248.435
21
-54.625
0
LINE
8
0
10
248.435
20
-40.625
11
235.435
21
-40.625
0
LINE
8
0
10
248.935
20
-54.125
11
248.935
21
-41.125
0
LINE
8
0
10
234.935
20
-41.125
11
234.935
21
-54.125
0
ARC
8
0
10
256.86625
20
-54.125
40
0.5
50
180
51
270
0
ARC
8
0
10
269.86625
20
-54.125
40
0.5
50
270
51
0
0
ARC
8
0
10
269.86625
20
-41.125
40
0.5
50
0
51
90
0
ARC
8
0
10
256.86625
20
-41.125
40
0.5
50
90
51
180
0
LINE
8
0
10
256.86625
20
-54.625
11
269.86625
21
-54.625
0
LINE
8
0
10
269.86625
20
-40.625
11
256.86625
21
-40.625
0
LINE
8
0
10
270.36625
20
-54.125
11
270.36625
21
-41.125
0
LINE
8
0
10
256.36625
20
-41.125
11
256.36625
21
-54.125
0
ARC
8
0
10
3.025
20
-73.175
40
0.5
50
180
51
270
0
ARC
8
0
10
16.025
20
-73.175
40
0.5
50
270
51
0
0
ARC
8
0
10
16.025
20
-60.175
40
0.5
50
0
51
90
0
ARC
8
0
10
3.025
20
-60.175
40
0.5
50
90
51
180
0
LINE
8
0
10
3.025
20
-73.675
11
16.025
21
-73.675
0
LINE
8
0
10
16.025
20
-59.675
11
3.025
21
-59.675
0
LINE
8
0
10
16.525
20
-73.175
11
16.525
21
-60.175
0
LINE
8
0
10
2.525
20
-60.175
11
2.525
21
-73.175
0
ARC
8
0
10
68.7475
20
-73.175
40
0.5
50
180
51
270
0
ARC
8
0
10
68.7475
20
-60.175
40
0.5
50
90
51
180
0
LINE
8
0
10
68.7475
20
-73.675
11
73.51
21
-73.675
0
LINE
8
0
10
73.51
20
-73.675
11
81.7475
21
-73.675
0
LINE
8
0
10
81.7475
20
-59.675
11
73.51
21
-59.675
0
LINE
8
0
10
73.51
20
-59.675
11
68.7475
21
-59.675
0
LINE
8
0
10
68.2475
20
-60.175
11
68.2475
21
-73.175
0
ARC
8
0
10
86.51
20
-73.175
40
0.5
50
270
51
0
0
ARC
8
0
10
86.51
20
-60.175
40
0.5
50
0
51
90
0
LINE
8
0
10
81.7475
20
-73.675
11
86.51
21
-73.675
0
LINE
8
0
10
86.51
20
-59.675
11
81.7475
21
-59.675
0
LINE
8
0
10
87.01
20
-73.175
11
87.01
21
-60.175
0
ARC
8
0
10
92.56
20
-73.175
40
0.5
50
180
51
270
0
ARC
8
0
10
92.56
20
-60.175
40
0.5
50
90
51
180
0
LINE
8
0
10
92.56
20
-73.675
11
100.3225
21
-73.675
0
LINE
8
0
10
100.3225
20
-59.675
11
92.56
21
-59.675
0
LINE
8
0
10
92.06
20
-60.175
11
92.06
21
-73.175
0
ARC
8
0
10
154.4725
20
-73.175
40
0.5
50
180
51
270
0
ARC
8
0
10
154.4725
20
-60.175
40
0.5
50
90
51
180
0
LINE
8
0
10
154.4725
20
-73.675
11
166.96575
21
-73.675
0
LINE
8
0
10
166.96575
20
-59.675
11
154.4725
21
-59.675
0
LINE
8
0
10
153.9725
20
-60.175
11
153.9725
21
-73.175
0
ARC
8
0
10
221.1225
20
-58.175
40
0.5
50
0
51
90
0
ARC
8
0
10
215.1225
20
-58.175
40
0.5
50
90
51
180
0
ARC
8
0
10
215.1225
20
-76.675
40
0.5
50
180
51
270
0
ARC
8
0
10
221.1225
20
-76.675
40
0.5
50
270
51
0
0
LINE
8
0
10
221.1225
20
-57.675
11
215.1225
21
-57.675
0
LINE
8
0
10
215.1225
20
-77.175
11
221.1225
21
-77.175
0
LINE
8
0
10
214.6225
20
-58.175
11
214.6225
21
-76.675
0
LINE
8
0
10
221.6225
20
-76.675
11
221.6225
21
-73.675
0
LINE
8
0
10
221.6225
20
-59.675
11
221.6225
21
-58.175
0
ARC
8
0
10
106.8225
20
-58.175
40
0.5
50
0
51
90
0
ARC
8
0
10
100.8225
20
-58.175
40
0.5
50
90
51
180
0
ARC
8
0
10
100.8225
20
-76.675
40
0.5
50
180
51
270
0
ARC
8
0
10
106.8225
20
-76.675
40
0.5
50
270
51
0
0
LINE
8
0
10
106.8225
20
-57.675
11
100.8225
21
-57.675
0
LINE
8
0
10
100.8225
20
-77.175
11
106.8225
21
-77.175
0
LINE
8
0
10
100.3225
20
-58.175
11
100.3225
21
-59.675
0
LINE
8
0
10
100.3225
20
-73.675
11
100.3225
21
-76.675
0
LINE
8
0
10
107.3225
20
-76.675
11
107.3225
21
-58.175
0
ARC
8
0
10
128.27875
20
-73.175
40
0.5
50
180
51
270
0
ARC
8
0
10
141.27875
20
-73.175
40
0.5
50
270
51
0
0
ARC
8
0
10
141.27875
20
-60.175
40
0.5
50
0
51
90
0
ARC
8
0
10
128.27875
20
-60.175
40
0.5
50
90
51
180
0
LINE
8
0
10
128.27875
20
-73.675
11
141.27875
21
-73.675
0
LINE
8
0
10
141.27875
20
-59.675
11
128.27875
21
-59.675
0
LINE
8
0
10
141.77875
20
-73.175
11
141.77875
21
-60.175
0
LINE
8
0
10
127.77875
20
-60.175
11
127.77875
21
-73.175
0
ARC
8
0
10
149.71675
20
-58.175
40
0.5
50
0
51
90
0
ARC
8
0
10
143.71675
20
-58.175
40
0.5
50
90
51
180
0
ARC
8
0
10
143.71675
20
-76.675
40
0.5
50
180
51
270
0
ARC
8
0
10
149.71675
20
-76.675
40
0.5
50
270
51
0
0
LINE
8
0
10
149.71675
20
-57.675
11
143.71675
21
-57.675
0
LINE
8
0
10
143.71675
20
-77.175
11
149.71675
21
-77.175
0
LINE
8
0
10
143.21675
20
-58.175
11
143.21675
21
-76.675
0
LINE
8
0
10
150.21675
20
-76.675
11
150.21675
21
-58.175
0
ARC
8
0
10
125.84075
20
-58.175
40
0.5
50
0
51
90
0
ARC
8
0
10
119.84075
20
-58.175
40
0.5
50
90
51
180
0
ARC
8
0
10
119.84075
20
-76.675
40
0.5
50
180
51
270
0
ARC
8
0
10
125.84075
20
-76.675
40
0.5
50
270
51
0
0
LINE
8
0
10
125.84075
20
-57.675
11
119.84075
21
-57.675
0
LINE
8
0
10
119.84075
20
-77.175
11
125.84075
21
-77.175
0
LINE
8
0
10
119.34075
20
-58.175
11
119.34075
21
-76.675
0
LINE
8
0
10
126.34075
20
-76.675
11
126.34075
21
-58.175
0
ARC
8
0
10
175.90375
20
-73.175
40
0.5
50
180
51
270
0
ARC
8
0
10
188.90375
20
-73.175
40
0.5
50
270
51
0
0
ARC
8
0
10
188.90375
20
-60.175
40
0.5
50
0
51
90
0
ARC
8
0
10
175.90375
20
-60.175
40
0.5
50
90
51
180
0
LINE
8
0
10
175.90375
20
-73.675
11
188.90375
21
-73.675
0
LINE
8
0
10
188.90375
20
-59.675
11
175.90375
21
-59.675
0
LINE
8
0
10
189.40375
20
-73.175
11
189.40375
21
-60.175
0
LINE
8
0
10
175.40375
20
-60.175
11
175.40375
21
-73.175
0
ARC
8
0
10
197.34175
20
-58.175
40
0.5
50
0
51
90
0
ARC
8
0
10
191.34175
20
-58.175
40
0.5
50
90
51
180
0
ARC
8
0
10
191.34175
20
-76.675
40
0.5
50
180
51
270
0
ARC
8
0
10
197.34175
20
-76.675
40
0.5
50
270
51
0
0
LINE
8
0
10
197.34175
20
-57.675
11
191.34175
21
-57.675
0
LINE
8
0
10
191.34175
20
-77.175
11
197.34175
21
-77.175
0
LINE
8
0
10
190.84175
20
-58.175
11
190.84175
21
-76.675
0
LINE
8
0
10
197.84175
20
-76.675
11
197.84175
21
-58.175
0
ARC
8
0
10
173.46575
20
-58.175
40
0.5
50
0
51
90
0
ARC
8
0
10
167.46575
20
-58.175
40
0.5
50
90
51
180
0
ARC
8
0
10
167.46575
20
-76.675
40
0.5
50
180
51
270
0
ARC
8
0
10
173.46575
20
-76.675
40
0.5
50
270
51
0
0
LINE
8
0
10
173.46575
20
-57.675
11
167.46575
21
-57.675
0
LINE
8
0
10
167.46575
20
-77.175
11
173.46575
21
-77.175
0
LINE
8
0
10
166.96575
20
-58.175
11
166.96575
21
-59.675
0
LINE
8
0
10
166.96575
20
-73.675
11
166.96575
21
-76.675
0
LINE
8
0
10
173.96575
20
-76.675
11
173.96575
21
-58.175
0
ARC
8
0
10
229.385
20
-73.175
40
0.5
50
270
51
0
0
ARC
8
0
10
229.385
20
-60.175
40
0.5
50
0
51
90
0
LINE
8
0
10
221.6225
20
-73.675
11
229.385
21
-73.675
0
LINE
8
0
10
229.385
20
-59.675
11
221.6225
21
-59.675
0
LINE
8
0
10
229.885
20
-73.175
11
229.885
21
-60.175
0
ARC
8
0
10
235.435
20
-73.175
40
0.5
50
180
51
270
0
ARC
8
0
10
235.435
20
-60.175
40
0.5
50
90
51
180
0
LINE
8
0
10
235.435
20
-73.675
11
240.1975
21
-73.675
0
LINE
8
0
10
240.1975
20
-73.675
11
248.435
21
-73.675
0
LINE
8
0
10
248.435
20
-59.675
11
240.1975
21
-59.675
0
LINE
8
0
10
240.1975
20
-59.675
11
235.435
21
-59.675
0
LINE
8
0
10
234.935
20
-60.175
11
234.935
21
-73.175
0
ARC
8
0
10
253.1975
20
-73.175
40
0.5
50
270
51
0
0
ARC
8
0
10
253.1975
20
-60.175
40
0.5
50
0
51
90
0
LINE
8
0
10
248.435
20
-73.675
11
253.1975
21
-73.675
0
LINE
8
0
10
253.1975
20
-59.675
11
248.435
21
-59.675
0
LINE
8
0
10
253.6975
20
-73.175
11
253.6975
21
-60.175
0
ENDSEC
0
EOF