0
SECTION
2
HEADER
9
$INSUNITS
70
4
0
ENDSEC
0
SECTION
2
TABLES
0
TABLE
2
LTYPE
0
LTYPE
72
65
70
64
2
CONTINUOUS
3
______
73
0
40
0
0
ENDTAB
0
TABLE
2
LAYER
0
ENDTAB
0
ENDSEC
0
SECTION
2
ENTITIES
0
ARC
8
0
10
3.025
20
-16.025
40
0.5
50
180
51
270
0
ARC
8
0
10
16.025
20
-16.025
40
0.5
50
270
51
0
0
ARC
8
0
10
16.025
20
-3.025
40
0.5
50
0
51
90
0
ARC
8
0
10
3.025
20
-3.025
40
0.5
50
90
51
180
0
LINE
8
0
10
3.025
20
-16.525
11
16.025
21
-16.525
0
LINE
8
0
10
16.025
20
-2.525
11
3.025
21
-2.525
0
LINE
8
0
10
16.525
20
-16.025
11
16.525
21
-3.025
0
LINE
8
0
10
2.525
20
-3.025
11
2.525
21
-16.025
0
ARC
8
0
10
49.6975
20
-16.025
40
0.5
50
180
51
270
0
ARC
8
0
10
62.6975
20
-16.025
40
0.5
50
270
51
0
0
ARC
8
0
10
62.6975
20
-3.025
40
0.5
50
0
51
90
0
ARC
8
0
10
49.6975
20
-3.025
40
0.5
50
90
51
180
0
LINE
8
0
10
49.6975
20
-16.525
11
62.6975
21
-16.525
0
LINE
8
0
10
62.6975
20
-2.525
11
49.6975
21
-2.525
0
LINE
8
0
10
63.1975
20
-16.025
11
63.1975
21
-3.025
0
LINE
8
0
10
49.1975
20
-3.025
11
49.1975
21
-16.025
0
ARC
8
0
10
68.7475
20
-16.025
40
0.5
50
180
51
270
0
ARC
8
0
10
81.7475
20
-16.025
40
0.5
50
270
51
0
0
ARC
8
0
10
81.7475
20
-3.025
40
0.5
50
0
51
90
0
ARC
8
0
10
68.7475
20
-3.025
40
0.5
50
90
51
180
0
LINE
8
0
10
68.7475
20
-16.525
11
81.7475
21
-16.525
0
LINE
8
0
10
81.7475
20
-2.525
11
68.7475
21
-2.525
0
LINE
8
0
10
82.2475
20
-16.025
11
82.2475
21
-3.025
0
LINE
8
0
10
68.2475
20
-3.025
11
68.2475
21
-16.025
0
ARC
8
0
10
87.7975
20
-16.025
40
0.5
50
180
51
270
0
ARC
8
0
10
100.7975
20
-16.025
40
0.5
50
270
51
0
0
ARC
8
0
10
100.7975
20
-3.025
40
0.5
50
0
51
90
0
ARC
8
0
10
87.7975
20
-3.025
40
0.5
50
90
51
180
0
LINE
8
0
10
87.7975
20
-16.525
11
100.7975
21
-16.525
0
LINE
8
0
10
100.7975
20
-2.525
11
87.7975
21
-2.525
0
LINE
8
0
10
101.2975
20
-16.025
11
101.2975
21
-3.025
0
LINE
8
0
10
87.2975
20
-3.025
11
87.2975
21
-16.025
0
ARC
8
0
10
106.8475
20
-16.025
40
0.5
50
180
51
270
0
ARC
8
0
10
119.8475
20
-16.025
40
0.5
50
270
51
0
0
ARC
8
0
10
119.8475
20
-3.025
40
0.5
50
0
51
90
0
ARC
8
0
10
106.8475
20
-3.025
40
0.5
50
90
51
180
0
LINE
8
0
10
106.8475
20
-16.525
11
119.8475
21
-16.525
0
LINE
8
0
10
119.8475
20
-2.525
11
106.8475
21
-2.525
0
LINE
8
0
10
120.3475
20
-16.025
11
120.3475
21
-3.025
0
LINE
8
0
10
106.3475
20
-3.025
11
106.3475
21
-16.025
0
ARC
8
0
10
125.8975
20
-16.025
40
0.5
50
180
51
270
0
ARC
8
0
10
138.8975
20
-16.025
40
0.5
50
270
51
0
0
ARC
8
0
10
138.8975
20
-3.025
40
0.5
50
0
51
90
0
ARC
8
0
10
125.8975
20
-3.025
40
0.5
50
90
51
180
0
LINE
8
0
10
125.8975
20
-16.525
11
138.8975
21
-16.525
0
LINE
8
0
10
138.8975
20
-2.525
11
125.8975
21
-2.525
0
LINE
8
0
10
139.3975
20
-16.025
11
139.3975
21
-3.025
0
LINE
8
0
10
125.3975
20
-3.025
11
125.3975
21
-16.025
0
ARC
8
0
10
144.9475
20
-16.025
40
0.5
50
180
51
270
0
ARC
8
0
10
157.9475
20
-16.025
40
0.5
50
270
51
0
0
ARC
8
0
10
157.9475
20
-3.025
40
0.5
50
0
51
90
0
ARC
8
0
10
144.9475
20
-3.025
40
0.5
50
90
51
180
0
LINE
8
0
10
144.9475
20
-16.525
11
157.9475
21
-16.525
0
LINE
8
0
10
157.9475
20
-2.525
11
144.9475
21
-2.525
0
LINE
8
0
10
158.4475
20
-16.025
11
158.4475
21
-3.025
0
LINE
8
0
10
144.4475
20
-3.025
11
144.4475
21
-16.025
0
ARC
8
0
10
163.9975
20
-16.025
40
0.5
50
180
51
270
0
ARC
8
0
10
176.9975
20
-16.025
40
0.5
50
270
51
0
0
ARC
8
0
10
176.9975
20
-3.025
40
0.5
50
0
51
90
0
ARC
8
0
10
163.9975
20
-3.025
40
0.5
50
90
51
180
0
LINE
8
0
10
163.9975
20
-16.525
11
176.9975
21
-16.525
0
LINE
8
0
10
176.9975
20
-2.525
11
163.9975
21
-2.525
0
LINE
8
0
10
177.4975
20
-16.025
11
177.4975
21
-3.025
0
LINE
8
0
10
163.4975
20
-3.025
11
163.4975
21
-16.025
0
ARC
8
0
10
183.0475
20
-16.025
40
0.5
50
180
51
270
0
ARC
8
0
10
196.0475
20
-16.025
40
0.5
50
270
51
0
0
ARC
8
0
10
196.0475
20
-3.025
40
0.5
50
0
51
90
0
ARC
8
0
10
183.0475
20
-3.025
40
0.5
50
90
51
180
0
LINE
8
0
10
183.0475
20
-16.525
11
196.0475
21
-16.525
0
LINE
8
0
10
196.0475
20
-2.525
11
183.0475
21
-2.525
0
LINE
8
0
10
196.5475
20
-16.025
11
196.5475
21
-3.025
0
LINE
8
0
10
182.5475
20
-3.025
11
182.5475
21
-16.025
0
ARC
8
0
10
202.0975
20
-16.025
40
0.5
50
180
51
270
0
ARC
8
0
10
215.0975
20
-16.025
40
0.5
50
270
51
0
0
ARC
8
0
10
215.0975
20
-3.025
40
0.5
50
0
51
90
0
ARC
8
0
10
202.0975
20
-3.025
40
0.5
50
90
51
180
0
LINE
8
0
10
202.0975
20
-16.525
11
215.0975
21
-16.525
0
LINE
8
0
10
215.0975
20
-2.525
11
202.0975
21
-2.525
0
LINE
8
0
10
215.5975
20
-16.025
11
215.5975
21
-3.025
0
LINE
8
0
10
201.5975
20
-3.025
11
201.5975
21
-16.025
0
ARC
8
0
10
221.1475
20
-16.025
40
0.5
50
180
51
270
0
ARC
8
0
10
234.1475
20
-16.025
40
0.5
50
270
51
0
0
ARC
8
0
10
234.1475
20
-3.025
40
0.5
50
0
51
90
0
ARC
8
0
10
221.1475
20
-3.025
40
0.5
50
90
51
180
0
LINE
8
0
10
221.1475
20
-16.525
11
234.1475
21
-16.525
0
LINE
8
0
10
234.1475
20
-2.525
11
221.1475
21
-2.525
0
LINE
8
0
10
234.6475
20
-16.025
11
234.6475
21
-3.025
0
LINE
8
0
10
220.6475
20
-3.025
11
220.6475
21
-16.025
0
ARC
8
0
10
240.1975
20
-16.025
40
0.5
50
180
51
270
0
ARC
8
0
10
253.1975
20
-16.025
40
0.5
50
270
51
0
0
ARC
8
0
10
253.1975
20
-3.025
40
0.5
50
0
51
90
0
ARC
8
0
10
240.1975
20
-3.025
40
0.5
50
90
51
180
0
LINE
8
0
10
240.1975
20
-16.525
11
253.1975
21
-16.525
0
LINE
8
0
10
253.1975
20
-2.525
11
240.1975
21
-2.525
0
LINE
8
0
10
253.6975
20
-16.025
11
253.6975
21
-3.025
0
LINE
8
0
10
239.6975
20
-3.025
11
239.6975
21
-16.025
0
ARC
8
0
10
259.2475
20
-16.025
40
0.5
50
180
51
270
0
ARC
8
0
10
272.2475
20
-16.025
40
0.5
50
270
51
0
0
ARC
8
0
10
272.2475
20
-3.025
40
0.5
50
0
51
90
0
ARC
8
0
10
259.2475
20
-3.025
40
0.5
50
90
51
180
0
LINE
8
0
10
259.2475
20
-16.525
11
272.2475
21
-16.525
0
LINE
8
0
10
272.2475
20
-2.525
11
259.2475
21
-2.525
0
LINE
8
0
10
272.7475
20
-16.025
11
272.7475
21
-3.025
0
LINE
8
0
10
258.7475
20
-3.025
11
258.7475
21
-16.025
0
ARC
8
0
10
3.025
20
-35.075
40
0.5
50
180
51
270
0
ARC
8
0
10
16.025
20
-35.075
40
0.5
50
270
51
0
0
ARC
8
0
10
16.025
20
-22.075
40
0.5
50
0
51
90
0
ARC
8
0
10
3.025
20
-22.075
40
0.5
50
90
51
180
0
LINE
8
0
10
3.025
20
-35.575
11
16.025
21
-35.575
0
LINE
8
0
10
16.025
20
-21.575
11
3.025
21
-21.575
0
LINE
8
0
10
16.525
20
-35.075
11
16.525
21
-22.075
0
LINE
8
0
10
2.525
20
-22.075
11
2.525
21
-35.075
0
ARC
8
0
10
49.6975
20
-35.075
40
0.5
50
180
51
270
0
ARC
8
0
10
62.6975
20
-35.075
40
0.5
50
270
51
0
0
ARC
8
0
10
62.6975
20
-22.075
40
0.5
50
0
51
90
0
ARC
8
0
10
49.6975
20
-22.075
40
0.5
50
90
51
180
0
LINE
8
0
10
49.6975
20
-35.575
11
62.6975
21
-35.575
0
LINE
8
0
10
62.6975
20
-21.575
11
49.6975
21
-21.575
0
LINE
8
0
10
63.1975
20
-35.075
11
63.1975
21
-22.075
0
LINE
8
0
10
49.1975
20
-22.075
11
49.1975
21
-35.075
0
ARC
8
0
10
68.7475
20
-35.075
40
0.5
50
180
51
270
0
ARC
8
0
10
81.7475
20
-35.075
40
0.5
50
270
51
0
0
ARC
8
0
10
81.7475
20
-22.075
40
0.5
50
0
51
90
0
ARC
8
0
10
68.7475
20
-22.075
40
0.5
50
90
51
180
0
LINE
8
0
10
68.7475
20
-35.575
11
81.7475
21
-35.575
0
LINE
8
0
10
81.7475
20
-21.575
11
68.7475
21
-21.575
0
LINE
8
0
10
82.2475
20
-35.075
11
82.2475
21
-22.075
0
LINE
8
0
10
68.2475
20
-22.075
11
68.2475
21
-35.075
0
ARC
8
0
10
87.7975
20
-35.075
40
0.5
50
180
51
270
0
ARC
8
0
10
100.7975
20
-35.075
40
0.5
50
270
51
0
0
ARC
8
0
10
100.7975
20
-22.075
40
0.5
50
0
51
90
0
ARC
8
0
10
87.7975
20
-22.075
40
0.5
50
90
51
180
0
LINE
8
0
10
87.7975
20
-35.575
11
100.7975
21
-35.575
0
LINE
8
0
10
100.7975
20
-21.575
11
87.7975
21
-21.575
0
LINE
8
0
10
101.2975
20
-35.075
11
101.2975
21
-22.075
0
LINE
8
0
10
87.2975
20
-22.075
11
87.2975
21
-35.075
0
ARC
8
0
10
106.8475
20
-35.075
40
0.5
50
180
51
270
0
ARC
8
0
10
119.8475
20
-35.075
40
0.5
50
270
51
0
0
ARC
8
0
10
119.8475
20
-22.075
40
0.5
50
0
51
90
0
ARC
8
0
10
106.8475
20
-22.075
40
0.5
50
90
51
180
0
LINE
8
0
10
106.8475
20
-35.575
11
119.8475
21
-35.575
0
LINE
8
0
10
119.8475
20
-21.575
11
106.8475
21
-21.575
0
LINE
8
0
10
120.3475
20
-35.075
11
120.3475
21
-22.075
0
LINE
8
0
10
106.3475
20
-22.075
11
106.3475
21
-35.075
0
ARC
8
0
10
125.8975
20
-35.075
40
0.5
50
180
51
270
0
ARC
8
0
10
138.8975
20
-35.075
40
0.5
50
270
51
0
0
ARC
8
0
10
138.8975
20
-22.075
40
0.5
50
0
51
90
0
ARC
8
0
10
125.8975
20
-22.075
40
0.5
50
90
51
180
0
LINE
8
0
10
125.8975
20
-35.575
11
138.8975
21
-35.575
0
LINE
8
0
10
138.8975
20
-21.575
11
125.8975
21
-21.575
0
LINE
8
0
10
139.3975
20
-35.075
11
139.3975
21
-22.075
0
LINE
8
0
10
125.3975
20
-22.075
11
125.3975
21
-35.075
0
ARC
8
0
10
144.9475
20
-35.075
40
0.5
50
180
51
270
0
ARC
8
0
10
157.9475
20
-35.075
40
0.5
50
270
51
0
0
ARC
8
0
10
157.9475
20
-22.075
40
0.5
50
0
51
90
0
ARC
8
0
10
144.9475
20
-22.075
40
0.5
50
90
51
180
0
LINE
8
0
10
144.9475
20
-35.575
11
157.9475
21
-35.575
0
LINE
8
0
10
157.9475
20
-21.575
11
144.9475
21
-21.575
0
LINE
8
0
10
158.4475
20
-35.075
11
158.4475
21
-22.075
0
LINE
8
0
10
144.4475
20
-22.075
11
144.4475
21
-35.075
0
ARC
8
0
10
163.9975
20
-35.075
40
0.5
50
180
51
270
0
ARC
8
0
10
176.9975
20
-35.075
40
0.5
50
270
51
0
0
ARC
8
0
10
176.9975
20
-22.075
40
0.5
50
0
51
90
0
ARC
8
0
10
163.9975
20
-22.075
40
0.5
50
90
51
180
0
LINE
8
0
10
163.9975
20
-35.575
11
176.9975
21
-35.575
0
LINE
8
0
10
176.9975
20
-21.575
11
163.9975
21
-21.575
0
LINE
8
0
10
177.4975
20
-35.075
11
177.4975
21
-22.075
0
LINE
8
0
10
163.4975
20
-22.075
11
163.4975
21
-35.075
0
ARC
8
0
10
183.0475
20
-35.075
40
0.5
50
180
51
270
0
ARC
8
0
10
196.0475
20
-35.075
40
0.5
50
270
51
0
0
ARC
8
0
10
196.0475
20
-22.075
40
0.5
50
0
51
90
0
ARC
8
0
10
183.0475
20
-22.075
40
0.5
50
90
51
180
0
LINE
8
0
10
183.0475
20
-35.575
11
196.0475
21
-35.575
0
LINE
8
0
10
196.0475
20
-21.575
11
183.0475
21
-21.575
0
LINE
8
0
10
196.5475
20
-35.075
11
196.5475
21
-22.075
0
LINE
8
0
10
182.5475
20
-22.075
11
182.5475
21
-35.075
0
ARC
8
0
10
202.0975
20
-35.075
40
0.5
50
180
51
270
0
ARC
8
0
10
215.0975
20
-35.075
40
0.5
50
270
51
0
0
ARC
8
0
10
215.0975
20
-22.075
40
0.5
50
0
51
90
0
ARC
8
0
10
202.0975
20
-22.075
40
0.5
50
90
51
180
0
LINE
8
0
10
202.0975
20
-35.575
11
215.0975
21
-35.575
0
LINE
8
0
10
215.0975
20
-21.575
11
202.0975
21
-21.575
0
LINE
8
0
10
215.5975
20
-35.075
11
215.5975
21
-22.075
0
LINE
8
0
10
201.5975
20
-22.075
11
201.5975
21
-35.075
0
ARC
8
0
10
221.1475
20
-35.075
40
0.5
50
180
51
270
0
ARC
8
0
10
234.1475
20
-35.075
40
0.5
50
270
51
0
0
ARC
8
0
10
234.1475
20
-22.075
40
0.5
50
0
51
90
0
ARC
8
0
10
221.1475
20
-22.075
40
0.5
50
90
51
180
0
LINE
8
0
10
221.1475
20
-35.575
11
234.1475
21
-35.575
0
LINE
8
0
10
234.1475
20
-21.575
11
221.1475
21
-21.575
0
LINE
8
0
10
234.6475
20
-35.075
11
234.6475
21
-22.075
0
LINE
8
0
10
220.6475
20
-22.075
11
220.6475
21
-35.075
0
ARC
8
0
10
240.1975
20
-35.075
40
0.5
50
180
51
270
0
ARC
8
0
10
253.1975
20
-35.075
40
0.5
50
270
51
0
0
ARC
8
0
10
253.1975
20
-22.075
40
0.5
50
0
51
90
0
ARC
8
0
10
240.1975
20
-22.075
40
0.5
50
90
51
180
0
LINE
8
0
10
240.1975
20
-35.575
11
253.1975
21
-35.575
0
LINE
8
0
10
253.1975
20
-21.575
11
240.1975
21
-21.575
0
LINE
8
0
10
253.6975
20
-35.075
11
253.6975
21
-22.075
0
LINE
8
0
10
239.6975
20
-22.075
11
239.6975
21
-35.075
0
ARC
8
0
10
259.2475
20
-35.075
40
0.5
50
180
51
270
0
ARC
8
0
10
272.2475
20
-35.075
40
0.5
50
270
51
0
0
ARC
8
0
10
272.2475
20
-22.075
40
0.5
50
0
51
90
0
ARC
8
0
10
259.2475
20
-22.075
40
0.5
50
90
51
180
0
LINE
8
0
10
259.2475
20
-35.575
11
272.2475
21
-35.575
0
LINE
8
0
10
272.2475
20
-21.575
11
259.2475
21
-21.575
0
LINE
8
0
10
272.7475
20
-35.075
11
272.7475
21
-22.075
0
LINE
8
0
10
258.7475
20
-22.075
11
258.7475
21
-35.075
0
ARC
8
0
10
3.025
20
-54.125
40
0.5
50
180
51
270
0
ARC
8
0
10
16.025
20
-54.125
40
0.5
50
270
51
0
0
ARC
8
0
10
16.025
20
-41.125
40
0.5
50
0
51
90
0
ARC
8
0
10
3.025
20
-41.125
40
0.5
50
90
51
180
0
LINE
8
0
10
3.025
20
-54.625
11
16.025
21
-54.625
0
LINE
8
0
10
16.025
20
-40.625
11
3.025
21
-40.625
0
LINE
8
0
10
16.525
20
-54.125
11
16.525
21
-41.125
0
LINE
8
0
10
2.525
20
-41.125
11
2.525
21
-54.125
0
ARC
8
0
10
49.6975
20
-54.125
40
0.5
50
180
51
270
0
ARC
8
0
10
62.6975
20
-54.125
40
0.5
50
270
51
0
0
ARC
8
0
10
62.6975
20
-41.125
40
0.5
50
0
51
90
0
ARC
8
0
10
49.6975
20
-41.125
40
0.5
50
90
51
180
0
LINE
8
0
10
49.6975
20
-54.625
11
62.6975
21
-54.625
0
LINE
8
0
10
62.6975
20
-40.625
11
49.6975
21
-40.625
0
LINE
8
0
10
63.1975
20
-54.125
11
63.1975
21
-41.125
0
LINE
8
0
10
49.1975
20
-41.125
11
49.1975
21
-54.125
0
ARC
8
0
10
68.7475
20
-54.125
40
0.5
50
180
51
270
0
ARC
8
0
10
81.7475
20
-54.125
40
0.5
50
270
51
0
0
ARC
8
0
10
81.7475
20
-41.125
40
0.5
50
0
51
90
0
ARC
8
0
10
68.7475
20
-41.125
40
0.5
50
90
51
180
0
LINE
8
0
10
68.7475
20
-54.625
11
81.7475
21
-54.625
0
LINE
8
0
10
81.7475
20
-40.625
11
68.7475
21
-40.625
0
LINE
8
0
10
82.2475
20
-54.125
11
82.2475
21
-41.125
0
LINE
8
0
10
68.2475
20
-41.125
11
68.2475
21
-54.125
0
ARC
8
0
10
87.7975
20
-54.125
40
0.5
50
180
51
270
0
ARC
8
0
10
100.7975
20
-54.125
40
0.5
50
270
51
0
0
ARC
8
0
10
100.7975
20
-41.125
40
0.5
50
0
51
90
0
ARC
8
0
10
87.7975
20
-41.125
40
0.5
50
90
51
180
0
LINE
8
0
10
87.7975
20
-54.625
11
100.7975
21
-54.625
0
LINE
8
0
10
100.7975
20
-40.625
11
87.7975
21
-40.625
0
LINE
8
0
10
101.2975
20
-54.125
11
101.2975
21
-41.125
0
LINE
8
0
10
87.2975
20
-41.125
11
87.2975
21
-54.125
0
ARC
8
0
10
106.8475
20
-54.125
40
0.5
50
180
51
270
0
ARC
8
0
10
119.8475
20
-54.125
40
0.5
50
270
51
0
0
ARC
8
0
10
119.8475
20
-41.125
40
0.5
50
0
51
90
0
ARC
8
0
10
106.8475
20
-41.125
40
0.5
50
90
51
180
0
LINE
8
0
10
106.8475
20
-54.625
11
119.8475
21
-54.625
0
LINE
8
0
10
119.8475
20
-40.625
11
106.8475
21
-40.625
0
LINE
8
0
10
120.3475
20
-54.125
11
120.3475
21
-41.125
0
LINE
8
0
10
106.3475
20
-41.125
11
106.3475
21
-54.125
0
ARC
8
0
10
125.8975
20
-54.125
40
0.5
50
180
51
270
0
ARC
8
0
10
138.8975
20
-54.125
40
0.5
50
270
51
0
0
ARC
8
0
10
138.8975
20
-41.125
40
0.5
50
0
51
90
0
ARC
8
0
10
125.8975
20
-41.125
40
0.5
50
90
51
180
0
LINE
8
0
10
125.8975
20
-54.625
11
138.8975
21
-54.625
0
LINE
8
0
10
138.8975
20
-40.625
11
125.8975
21
-40.625
0
LINE
8
0
10
139.3975
20
-54.125
11
139.3975
21
-41.125
0
LINE
8
0
10
125.3975
20
-41.125
11
125.3975
21
-54.125
0
ARC
8
0
10
144.9475
20
-54.125
40
0.5
50
180
51
270
0
ARC
8
0
10
157.9475
20
-54.125
40
0.5
50
270
51
0
0
ARC
8
0
10
157.9475
20
-41.125
40
0.5
50
0
51
90
0
ARC
8
0
10
144.9475
20
-41.125
40
0.5
50
90
51
180
0
LINE
8
0
10
144.9475
20
-54.625
11
157.9475
21
-54.625
0
LINE
8
0
10
157.9475
20
-40.625
11
144.9475
21
-40.625
0
LINE
8
0
10
158.4475
20
-54.125
11
158.4475
21
-41.125
0
LINE
8
0
10
144.4475
20
-41.125
11
144.4475
21
-54.125
0
ARC
8
0
10
163.9975
20
-54.125
40
0.5
50
180
51
270
0
ARC
8
0
10
176.9975
20
-54.125
40
0.5
50
270
51
0
0
ARC
8
0
10
176.9975
20
-41.125
40
0.5
50
0
51
90
0
ARC
8
0
10
163.9975
20
-41.125
40
0.5
50
90
51
180
0
LINE
8
0
10
163.9975
20
-54.625
11
176.9975
21
-54.625
0
LINE
8
0
10
176.9975
20
-40.625
11
163.9975
21
-40.625
0
LINE
8
0
10
177.4975
20
-54.125
11
177.4975
21
-41.125
0
LINE
8
0
10
163.4975
20
-41.125
11
163.4975
21
-54.125
0
ARC
8
0
10
183.0475
20
-54.125
40
0.5
50
180
51
270
0
ARC
8
0
10
196.0475
20
-54.125
40
0.5
50
270
51
0
0
ARC
8
0
10
196.0475
20
-41.125
40
0.5
50
0
51
90
0
ARC
8
0
10
183.0475
20
-41.125
40
0.5
50
90
51
180
0
LINE
8
0
10
183.0475
20
-54.625
11
196.0475
21
-54.625
0
LINE
8
0
10
196.0475
20
-40.625
11
183.0475
21
-40.625
0
LINE
8
0
10
196.5475
20
-54.125
11
196.5475
21
-41.125
0
LINE
8
0
10
182.5475
20
-41.125
11
182.5475
21
-54.125
0
ARC
8
0
10
202.0975
20
-54.125
40
0.5
50
180
51
270
0
ARC
8
0
10
215.0975
20
-54.125
40
0.5
50
270
51
0
0
ARC
8
0
10
215.0975
20
-41.125
40
0.5
50
0
51
90
0
ARC
8
0
10
202.0975
20
-41.125
40
0.5
50
90
51
180
0
LINE
8
0
10
202.0975
20
-54.625
11
215.0975
21
-54.625
0
LINE
8
0
10
215.0975
20
-40.625
11
202.0975
21
-40.625
0
LINE
8
0
10
215.5975
20
-54.125
11
215.5975
21
-41.125
0
LINE
8
0
10
201.5975
20
-41.125
11
201.5975
21
-54.125
0
ARC
8
0
10
221.1475
20
-54.125
40
0.5
50
180
51
270
0
ARC
8
0
10
234.1475
20
-54.125
40
0.5
50
270
51
0
0
ARC
8
0
10
234.1475
20
-41.125
40
0.5
50
0
51
90
0
ARC
8
0
10
221.1475
20
-41.125
40
0.5
50
90
51
180
0
LINE
8
0
10
221.1475
20
-54.625
11
234.1475
21
-54.625
0
LINE
8
0
10
234.1475
20
-40.625
11
221.1475
21
-40.625
0
LINE
8
0
10
234.6475
20
-54.125
11
234.6475
21
-41.125
0
LINE
8
0
10
220.6475
20
-41.125
11
220.6475
21
-54.125
0
ARC
8
0
10
240.1975
20
-54.125
40
0.5
50
180
51
270
0
ARC
8
0
10
253.1975
20
-54.125
40
0.5
50
270
51
0
0
ARC
8
0
10
253.1975
20
-41.125
40
0.5
50
0
51
90
0
ARC
8
0
10
240.1975
20
-41.125
40
0.5
50
90
51
180
0
LINE
8
0
10
240.1975
20
-54.625
11
253.1975
21
-54.625
0
LINE
8
0
10
253.1975
20
-40.625
11
240.1975
21
-40.625
0
LINE
8
0
10
253.6975
20
-54.125
11
253.6975
21
-41.125
0
LINE
8
0
10
239.6975
20
-41.125
11
239.6975
21
-54.125
0
ARC
8
0
10
259.2475
20
-54.125
40
0.5
50
180
51
270
0
ARC
8
0
10
272.2475
20
-54.125
40
0.5
50
270
51
0
0
ARC
8
0
10
272.2475
20
-41.125
40
0.5
50
0
51
90
0
ARC
8
0
10
259.2475
20
-41.125
40
0.5
50
90
51
180
0
LINE
8
0
10
259.2475
20
-54.625
11
272.2475
21
-54.625
0
LINE
8
0
10
272.2475
20
-40.625
11
259.2475
21
-40.625
0
LINE
8
0
10
272.7475
20
-54.125
11
272.7475
21
-41.125
0
LINE
8
0
10
258.7475
20
-41.125
11
258.7475
21
-54.125
0
ARC
8
0
10
3.025
20
-73.175
40
0.5
50
180
51
270
0
ARC
8
0
10
16.025
20
-73.175
40
0.5
50
270
51
0
0
ARC
8
0
10
16.025
20
-60.175
40
0.5
50
0
51
90
0
ARC
8
0
10
3.025
20
-60.175
40
0.5
50
90
51
180
0
LINE
8
0
10
3.025
20
-73.675
11
16.025
21
-73.675
0
LINE
8
0
10
16.025
20
-59.675
11
3.025
21
-59.675
0
LINE
8
0
10
16.525
20
-73.175
11
16.525
21
-60.175
0
LINE
8
0
10
2.525
20
-60.175
11
2.525
21
-73.175
0
ARC
8
0
10
68.7475
20
-73.175
40
0.5
50
180
51
270
0
ARC
8
0
10
81.7475
20
-73.175
40
0.5
50
270
51
0
0
ARC
8
0
10
81.7475
20
-60.175
40
0.5
50
0
51
90
0
ARC
8
0
10
68.7475
20
-60.175
40
0.5
50
90
51
180
0
LINE
8
0
10
68.7475
20
-73.675
11
81.7475
21
-73.675
0
LINE
8
0
10
81.7475
20
-59.675
11
68.7475
21
-59.675
0
LINE
8
0
10
82.2475
20
-73.175
11
82.2475
21
-60.175
0
LINE
8
0
10
68.2475
20
-60.175
11
68.2475
21
-73.175
0
ARC
8
0
10
87.7975
20
-73.175
40
0.5
50
180
51
270
0
ARC
8
0
10
100.7975
20
-73.175
40
0.5
50
270
51
0
0
ARC
8
0
10
100.7975
20
-60.175
40
0.5
50
0
51
90
0
ARC
8
0
10
87.7975
20
-60.175
40
0.5
50
90
51
180
0
LINE
8
0
10
87.7975
20
-73.675
11
100.7975
21
-73.675
0
LINE
8
0
10
100.7975
20
-59.675
11
87.7975
21
-59.675
0
LINE
8
0
10
101.2975
20
-73.175
11
101.2975
21
-60.175
0
LINE
8
0
10
87.2975
20
-60.175
11
87.2975
21
-73.175
0
ARC
8
0
10
106.8475
20
-73.175
40
0.5
50
180
51
270
0
ARC
8
0
10
119.8475
20
-73.175
40
0.5
50
270
51
0
0
ARC
8
0
10
119.8475
20
-60.175
40
0.5
50
0
51
90
0
ARC
8
0
10
106.8475
20
-60.175
40
0.5
50
90
51
180
0
LINE
8
0
10
106.8475
20
-73.675
11
109.8475
21
-73.675
0
LINE
8
0
10
116.8475
20
-73.675
11
119.8475
21
-73.675
0
LINE
8
0
10
119.8475
20
-59.675
11
116.8475
21
-59.675
0
LINE
8
0
10
109.8475
20
-59.675
11
106.8475
21
-59.675
0
LINE
8
0
10
120.3475
20
-73.175
11
120.3475
21
-60.175
0
LINE
8
0
10
106.3475
20
-60.175
11
106.3475
21
-73.175
0
ARC
8
0
10
125.8975
20
-73.175
40
0.5
50
180
51
270
0
ARC
8
0
10
125.8975
20
-60.175
40
0.5
50
90
51
180
0
LINE
8
0
10
125.8975
20
-73.675
11
126.4845
21
-73.675
0
LINE
8
0
10
135.4225
20
-73.675
11
138.8975
21
-73.675
0
LINE
8
0
10
133.4845
20
-73.675
11
135.4225
21
-73.675
0
LINE
8
0
10
138.8975
20
-59.675
11
135.4225
21
-59.675
0
LINE
8
0
10
135.4225
20
-59.675
11
133.4845
21
-59.675
0
LINE
8
0
10
126.4845
20
-59.675
11
125.8975
21
-59.675
0
LINE
8
0
10
125.3975
20
-60.175
11
125.3975
21
-73.175
0
LINE
8
0
10
154.4475
20
-57.675
11
152.0345
21
-57.675
0
LINE
8
0
10
152.0345
20
-57.675
11
150.8605
21
-57.675
0
LINE
8
0
10
150.8605
20
-57.675
11
148.4475
21
-57.675
0
LINE
8
0
10
148.4475
20
-77.175
11
150.8605
21
-77.175
0
LINE
8
0
10
150.8605
20
-77.175
11
152.0345
21
-77.175
0
LINE
8
0
10
152.0345
20
-77.175
11
154.4475
21
-77.175
0
ARC
8
0
10
116.3475
20
-58.175
40
0.5
50
0
51
90
0
ARC
8
0
10
110.3475
20
-58.175
40
0.5
50
90
51
180
0
ARC
8
0
10
110.3475
20
-76.675
40
0.5
50
180
51
270
0
ARC
8
0
10
116.3475
20
-76.675
40
0.5
50
270
51
0
0
LINE
8
0
10
116.3475
20
-57.675
11
110.3475
21
-57.675
0
LINE
8
0
10
110.3475
20
-77.175
11
116.3475
21
-77.175
0
LINE
8
0
10
109.8475
20
-58.175
11
109.8475
21
-59.675
0
LINE
8
0
10
109.8475
20
-73.675
11
109.8475
21
-76.675
0
LINE
8
0
10
116.8475
20
-76.675
11
116.8475
21
-73.675
0
LINE
8
0
10
116.8475
20
-59.675
11
116.8475
21
-58.175
0
LINE
8
0
10
138.8975
20
-73.675
11
144.9475
21
-73.675
0
LINE
8
0
10
144.9475
20
-73.675
11
145.5345
21
-73.675
0
LINE
8
0
10
145.5345
20
-59.675
11
144.9475
21
-59.675
0
LINE
8
0
10
144.9475
20
-59.675
11
138.8975
21
-59.675
0
ARC
8
0
10
156.8605
20
-58.175
40
0.5
50
0
51
90
0
ARC
8
0
10
156.8605
20
-76.675
40
0.5
50
270
51
0
0
LINE
8
0
10
156.8605
20
-57.675
11
154.4475
21
-57.675
0
LINE
8
0
10
154.4475
20
-77.175
11
156.8605
21
-77.175
0
LINE
8
0
10
157.3605
20
-76.675
11
157.3605
21
-73.675
0
LINE
8
0
10
157.3605
20
-59.675
11
157.3605
21
-58.175
0
ARC
8
0
10
132.9845
20
-58.175
40
0.5
50
0
51
90
0
ARC
8
0
10
126.9845
20
-58.175
40
0.5
50
90
51
180
0
ARC
8
0
10
126.9845
20
-76.675
40
0.5
50
180
51
270
0
ARC
8
0
10
132.9845
20
-76.675
40
0.5
50
270
51
0
0
LINE
8
0
10
132.9845
20
-57.675
11
126.9845
21
-57.675
0
LINE
8
0
10
126.9845
20
-77.175
11
132.9845
21
-77.175
0
LINE
8
0
10
126.4845
20
-58.175
11
126.4845
21
-59.675
0
LINE
8
0
10
126.4845
20
-73.675
11
126.4845
21
-76.675
0
LINE
8
0
10
133.4845
20
-76.675
11
133.4845
21
-73.675
0
LINE
8
0
10
133.4845
20
-59.675
11
133.4845
21
-58.175
0
LINE
8
0
10
157.3605
20
-73.675
11
157.9475
21
-73.675
0
LINE
8
0
10
157.9475
20
-59.675
11
157.3605
21
-59.675
0
LINE
8
0
10
157.9475
20
-73.675
11
163.9975
21
-73.675
0
LINE
8
0
10
163.9975
20
-73.675
11
164.5845
21
-73.675
0
LINE
8
0
10
164.5845
20
-59.675
11
163.9975
21
-59.675
0
LINE
8
0
10
163.9975
20
-59.675
11
157.9475
21
-59.675
0
ARC
8
0
10
175.9105
20
-58.175
40
0.5
50
0
51
90
0
ARC
8
0
10
175.9105
20
-76.675
40
0.5
50
270
51
0
0
LINE
8
0
10
175.9105
20
-57.675
11
173.4975
21
-57.675
0
LINE
8
0
10
173.4975
20
-57.675
11
171.0845
21
-57.675
0
LINE
8
0
10
171.0845
20
-57.675
11
169.9105
21
-57.675
0
LINE
8
0
10
169.9105
20
-77.175
11
171.0845
21
-77.175
0
LINE
8
0
10
171.0845
20
-77.175
11
173.4975
21
-77.175
0
LINE
8
0
10
173.4975
20
-77.175
11
175.9105
21
-77.175
0
LINE
8
0
10
176.4105
20
-76.675
11
176.4105
21
-73.675
0
LINE
8
0
10
176.4105
20
-59.675
11
176.4105
21
-58.175
0
ARC
8
0
10
146.0345
20
-58.175
40
0.5
50
90
51
180
0
ARC
8
0
10
146.0345
20
-76.675
40
0.5
50
180
51
270
0
LINE
8
0
10
148.4475
20
-57.675
11
146.0345
21
-57.675
0
LINE
8
0
10
146.0345
20
-77.175
11
148.4475
21
-77.175
0
LINE
8
0
10
145.5345
20
-58.175
11
145.5345
21
-59.675
0
LINE
8
0
10
145.5345
20
-73.675
11
145.5345
21
-76.675
0
LINE
8
0
10
176.4105
20
-73.675
11
176.9975
21
-73.675
0
LINE
8
0
10
176.9975
20
-59.675
11
176.4105
21
-59.675
0
LINE
8
0
10
176.9975
20
-73.675
11
183.0475
21
-73.675
0
LINE
8
0
10
183.0475
20
-73.675
11
186.5225
21
-73.675
0
LINE
8
0
10
186.5225
20
-59.675
11
183.0475
21
-59.675
0
LINE
8
0
10
183.0475
20
-59.675
11
176.9975
21
-59.675
0
ARC
8
0
10
194.9605
20
-58.175
40
0.5
50
0
51
90
0
ARC
8
0
10
188.9605
20
-58.175
40
0.5
50
90
51
180
0
ARC
8
0
10
188.9605
20
-76.675
40
0.5
50
180
51
270
0
ARC
8
0
10
194.9605
20
-76.675
40
0.5
50
270
51
0
0
LINE
8
0
10
194.9605
20
-57.675
11
188.9605
21
-57.675
0
LINE
8
0
10
188.9605
20
-77.175
11
194.9605
21
-77.175
0
LINE
8
0
10
188.4605
20
-58.175
11
188.4605
21
-59.675
0
LINE
8
0
10
188.4605
20
-73.675
11
188.4605
21
-76.675
0
LINE
8
0
10
195.4605
20
-76.675
11
195.4605
21
-73.675
0
LINE
8
0
10
195.4605
20
-59.675
11
195.4605
21
-58.175
0
ARC
8
0
10
165.0845
20
-58.175
40
0.5
50
90
51
180
0
ARC
8
0
10
165.0845
20
-76.675
40
0.5
50
180
51
270
0
LINE
8
0
10
169.9105
20
-57.675
11
167.4975
21
-57.675
0
LINE
8
0
10
167.4975
20
-57.675
11
165.0845
21
-57.675
0
LINE
8
0
10
165.0845
20
-77.175
11
167.4975
21
-77.175
0
LINE
8
0
10
167.4975
20
-77.175
11
169.9105
21
-77.175
0
LINE
8
0
10
164.5845
20
-58.175
11
164.5845
21
-59.675
0
LINE
8
0
10
164.5845
20
-73.675
11
164.5845
21
-76.675
0
ARC
8
0
10
196.0475
20
-73.175
40
0.5
50
270
51
0
0
ARC
8
0
10
196.0475
20
-60.175
40
0.5
50
0
51
90
0
LINE
8
0
10
186.5225
20
-73.675
11
188.4605
21
-73.675
0
LINE
8
0
10
195.4605
20
-73.675
11
196.0475
21
-73.675
0
LINE
8
0
10
196.0475
20
-59.675
11
195.4605
21
-59.675
0
LINE
8
0
10
188.4605
20
-59.675
11
186.5225
21
-59.675
0
LINE
8
0
10
196.5475
20
-73.175
11
196.5475
21
-60.175
0
ARC
8
0
10
211.5975
20
-58.175
40
0.5
50
0
51
90
0
ARC
8
0
10
205.5975
20
-58.175
40
0.5
50
90
51
180
0
ARC
8
0
10
205.5975
20
-76.675
40
0.5
50
180
51
270
0
ARC
8
0
10
211.5975
20
-76.675
40
0.5
50
270
51
0
0
LINE
8
0
10
211.5975
20
-57.675
11
205.5975
21
-57.675
0
LINE
8
0
10
205.5975
20
-77.175
11
211.5975
21
-77.175
0
LINE
8
0
10
205.0975
20
-58.175
11
205.0975
21
-59.675
0
LINE
8
0
10
205.0975
20
-73.675
11
205.0975
21
-76.675
0
LINE
8
0
10
212.0975
20
-76.675
11
212.0975
21
-73.675
0
LINE
8
0
10
212.0975
20
-59.675
11
212.0975
21
-58.175
0
ARC
8
0
10
202.0975
20
-73.175
40
0.5
50
180
51
270
0
ARC
8
0
10
215.0975
20
-73.175
40
0.5
50
270
51
0
0
ARC
8
0
10
215.0975
20
-60.175
40
0.5
50
0
51
90
0
ARC
8
0
10
202.0975
20
-60.175
40
0.5
50
90
51
180
0
LINE
8
0
10
202.0975
20
-73.675
11
205.0975
21
-73.675
0
LINE
8
0
10
212.0975
20
-73.675
11
215.0975
21
-73.675
0
LINE
8
0
10
215.0975
20
-59.675
11
212.0975
21
-59.675
0
LINE
8
0
10
205.0975
20
-59.675
11
202.0975
21
-59.675
0
LINE
8
0
10
215.5975
20
-73.175
11
215.5975
21
-60.175
0
LINE
8
0
10
201.5975
20
-60.175
11
201.5975
21
-73.175
0
ARC
8
0
10
221.1475
20
-73.175
40
0.5
50
180
51
270
0
ARC
8
0
10
234.1475
20
-73.175
40
0.5
50
270
51
0
0
ARC
8
0
10
234.1475
20
-60.175
40
0.5
50
0
51
90
0
ARC
8
0
10
221.1475
20
-60.175
40
0.5
50
90
51
180
0
LINE
8
0
10
221.1475
20
-73.675
11
234.1475
21
-73.675
0
LINE
8
0
10
234.1475
20
-59.675
11
221.1475
21
-59.675
0
LINE
8
0
10
234.6475
20
-73.175
11
234.6475
21
-60.175
0
LINE
8
0
10
220.6475
20
-60.175
11
220.6475
21
-73.175
0
ARC
8
0
10
240.1975
20
-73.175
40
0.5
50
180
51
270
0
ARC
8
0
10
253.1975
20
-73.175
40
0.5
50
270
51
0
0
ARC
8
0
10
253.1975
20
-60.175
40
0.5
50
0
51
90
0
ARC
8
0
10
240.1975
20
-60.175
40
0.5
50
90
51
180
0
LINE
8
0
10
240.1975
20
-73.675
11
253.1975
21
-73.675
0
LINE
8
0
10
253.1975
20
-59.675
11
240.1975
21
-59.675
0
LINE
8
0
10
253.6975
20
-73.175
11
253.6975
21
-60.175
0
LINE
8
0
10
239.6975
20
-60.175
11
239.6975
21
-73.175
0
ENDSEC
0
EOF