0
SECTION
2
HEADER
9
$INSUNITS
70
4
9
$ACADVER
1
AC1014
9
$HANDSEED
5
FFFF
0
ENDSEC
0
SECTION
2
TABLES
0
TABLE
2
VPORT
5
8
100
AcDbSymbolTable
0
ENDTAB
0
TABLE
2
LTYPE
5
5
100
AcDbSymbolTable
0
LTYPE
5
14
100
AcDbSymbolTableRecord
100
AcDbLinetypeTableRecord
2
BYBLOCK
70
0
0
LTYPE
5
15
100
AcDbSymbolTableRecord
100
AcDbLinetypeTableRecord
2
BYLAYER
70
0
0
LTYPE
5
16
100
AcDbSymbolTableRecord
100
AcDbLinetypeTableRecord
2
DASHED
70
0
3
Dashed __ __ __ __ __ __ __ __ __ __ __ __ __ _
72
65
73
2
40
0.75
49
0.5
74
0
49
-0.25
74
0
0
ENDTAB
0
TABLE
2
LAYER
5
2
100
AcDbSymbolTable
70
2
0
LAYER
5
50
100
AcDbSymbolTableRecord
100
AcDbLayerTableRecord
2
0
70
0
62
7
6
CONTINUOUS
0
ENDTAB
0
TABLE
2
STYLE
5
3
100
AcDbSymbolTable
70
1
0
STYLE
5
11
100
AcDbSymbolTableRecord
100
AcDbTextStyleTableRecord
2
STANDARD
70
0
0
ENDTAB
0
TABLE
2
VIEW
5
6
100
AcDbSymbolTable
70
0
0
ENDTAB
0
TABLE
2
UCS
5
7
100
AcDbSymbolTable
70
0
0
ENDTAB
0
TABLE
2
APPID
5
9
100
AcDbSymbolTable
70
2
0
APPID
5
12
100
AcDbSymbolTableRecord
100
AcDbRegAppTableRecord
2
ACAD
70
0
0
ENDTAB
0
TABLE
2
DIMSTYLE
5
A
100
AcDbSymbolTable
70
1
0
ENDTAB
0
TABLE
2
BLOCK_RECORD
5
1
100
AcDbSymbolTable
70
1
0
BLOCK_RECORD
5
1F
100
AcDbSymbolTableRecord
100
AcDbBlockTableRecord
2
*MODEL_SPACE
0
BLOCK_RECORD
5
1B
100
AcDbSymbolTableRecord
100
AcDbBlockTableRecord
2
*PAPER_SPACE
0
ENDTAB
0
ENDSEC
0
SECTION
2
BLOCKS
0
BLOCK
5
20
100
AcDbEntity
100
AcDbBlockBegin
2
*MODEL_SPACE
0
ENDBLK
5
21
100
AcDbEntity
100
AcDbBlockEnd
0
BLOCK
5
1C
100
AcDbEntity
100
AcDbBlockBegin
2
*PAPER_SPACE
0
ENDBLK
5
1D
100
AcDbEntity
100
AcDbBlockEnd
0
ENDSEC
0
SECTION
2
ENTITIES
0
LWPOLYLINE
5
100
100
AcDbEntity
8
0
100
AcDbPolyline
90
20
70
1
43
0.0
10
288.7475
20
-84.674999999999997
10
288.7475
20
8.4750000000000014
42
0.41421356237309154
10
283.7475
20
13.475000000000001
10
39.947499999999998
20
13.475000000000001
10
39.947500000000019
20
0.72499999999999787
10
45.947500000000012
20
0.72499999999999776
10
45.947500000000012
20
-76.924999999999983
10
45.947500000000012
20
-77.924999999999983
42
-0.41421356237309176
10
41.947499999999998
20
-81.924999999999983
10
23.774999999999999
20
-81.924999999999983
42
-0.41421356237309148
10
19.775000000000009
20
-77.924999999999983
10
19.774999999999991
20
-76.924999999999983
10
19.774999999999991
20
0.72499999999999776
10
25.775000000000002
20
0.72499999999999776
10
25.775000000000002
20
13.475000000000001
10
-8.4750000000000014
20
13.475000000000001
42
0.41421356237309503
10
-13.475000000000001
20
8.4750000000000014
10
-13.475000000000001
20
-84.674999999999997
42
0.41421356237309276
10
-8.4750000000000014
20
-89.674999999999997
10
283.7475
20
-89.674999999999997
42
0.41421356237309193
0
LWPOLYLINE
5
101
100
AcDbEntity
8
0
100
AcDbPolyline
90
6
70
1
43
0.0
10
278.63906189458561
20
-83.175000472348145
10
280.4432814858032
20
-86.300000472348145
10
284.05172066823837
20
-86.300000472348145
10
285.85594025945596
20
-83.175000472348145
10
284.05172066823837
20
-80.050000472348145
10
280.4432814858032
20
-80.050000472348145
0
LWPOLYLINE
5
102
100
AcDbEntity
8
0
100
AcDbPolyline
90
6
70
1
43
0.0
10
135.82741608146821
20
-80.050000472348145
10
134.02319649025065
20
-83.175000472348145
10
135.82741608146821
20
-86.300000472348145
10
139.43585526390342
20
-86.300000472348145
10
141.24007485512095
20
-83.175000472348145
10
139.43585526390342
20
-80.050000472348145
0
LWPOLYLINE
5
103
100
AcDbEntity
8
0
100
AcDbPolyline
90
6
70
1
43
0.0
10
-10.592668914084332
20
6.9999603113101649
10
-8.7884493228667537
20
3.8749603113101649
10
-5.1800101404315937
20
3.8749603113101632
10
-3.3757905492140114
20
6.9999603113101649
10
-5.1800101404315937
20
10.124960311310163
10
-8.7884493228667537
20
10.124960311310163
0
LWPOLYLINE
5
104
100
AcDbEntity
8
0
100
AcDbPolyline
90
6
70
1
43
0.0
10
-5.1800101404315937
20
-80.050000472348145
10
-8.7884493228667537
20
-80.050000472348145
10
-10.592668914084332
20
-83.175000472348145
10
-8.7884493228667537
20
-86.300000472348145
10
-5.1800101404315937
20
-86.300000472348145
10
-3.3757905492140114
20
-83.175000472348145
0
LWPOLYLINE
5
105
100
AcDbEntity
8
0
100
AcDbPolyline
90
6
70
1
43
0.0
10
141.24007485512095
20
6.9999603113101649
10
139.43585526390342
20
10.124960311310163
10
135.82741608146821
20
10.124960311310163
10
134.02319649025065
20
6.9999603113101649
10
135.82741608146821
20
3.8749603113101649
10
139.43585526390342
20
3.8749603113101632
0
LWPOLYLINE
5
106
100
AcDbEntity
8
0
100
AcDbPolyline
90
6
70
1
43
0.0
10
280.4432814858032
20
10.124960311310163
10
278.63906189458561
20
6.9999603113101649
10
280.4432814858032
20
3.8749603113101649
10
284.05172066823837
20
3.8749603113101632
10
285.85594025945596
20
6.9999603113101649
10
284.05172066823837
20
10.124960311310163
0
LWPOLYLINE
5
107
100
AcDbEntity
8
0
100
AcDbPolyline
90
16
70
1
43
0.0
10
16.024999999999999
20
-16.525000000000002
42
0.41421356237308982
10
16.525000000000002
20
-16.024999999999999
10
16.525000000000002
20
-3.0249999999999999
42
0.4142135623730937
10
16.024999999999999
20
-2.5249999999999999
10
13.775000000000002
20
-2.5249999999999999
10
13.775000000000002
20
-1.2749999999999999
10
5.2750000000000004
20
-1.2749999999999999
10
5.2750000000000004
20
-2.5249999999999999
10
3.0249999999999999
20
-2.5249999999999999
42
0.41421356237309437
10
2.5249999999999999
20
-3.0249999999999999
10
2.5249999999999999
20
-16.024999999999999
42
0.41421356237309437
10
3.0249999999999999
20
-16.525000000000002
10
5.2750000000000004
20
-16.525000000000002
10
5.2750000000000004
20
-17.775000000000002
10
13.775000000000002
20
-17.775000000000002
10
13.775000000000002
20
-16.525000000000002
0
LWPOLYLINE
5
108
100
AcDbEntity
8
0
100
AcDbPolyline
90
8
70
1
43
0.0
10
62.697500000000019
20
-16.525000000000002
42
0.41421356237308721
10
63.197499999999998
20
-16.024999999999999
10
63.197499999999998
20
-3.0249999999999999
42
0.41421356237309764
10
62.697500000000019
20
-2.5249999999999999
10
49.697500000000012
20
-2.5249999999999999
42
0.41421356237309698
10
49.197500000000012
20
-3.0249999999999999
10
49.197500000000012
20
-16.024999999999999
42
0.41421356237308982
10
49.697500000000012
20
-16.525000000000002
0
LWPOLYLINE
5
109
100
AcDbEntity
8
0
100
AcDbPolyline
90
8
70
1
43
0.0
10
68.747500000000002
20
-2.5249999999999999
42
0.41421356237309698
10
68.247500000000002
20
-3.0249999999999999
10
68.247500000000002
20
-16.024999999999999
42
0.41421356237308982
10
68.747500000000002
20
-16.525000000000002
10
81.747500000000016
20
-16.525000000000002
42
0.41421356237307161
10
82.247500000000016
20
-16.024999999999999
10
82.247500000000016
20
-3.0249999999999999
42
0.41421356237307422
10
81.747500000000016
20
-2.5249999999999928
0
LWPOLYLINE
5
110
100
AcDbEntity
8
0
100
AcDbPolyline
90
8
70
1
43
0.0
10
87.797499999999999
20
-2.5249999999999999
42
0.41421356237309309
10
87.297499999999985
20
-3.0249999999999999
10
87.297499999999985
20
-16.024999999999999
42
0.41421356237309503
10
87.797499999999999
20
-16.525000000000006
10
100.79750000000001
20
-16.525000000000002
42
0.41421356237309243
10
101.29750000000001
20
-16.024999999999999
10
101.29750000000001
20
-3.0249999999999999
42
0.41421356237310542
10
100.79750000000001
20
-2.5249999999999999
0
LWPOLYLINE
5
111
100
AcDbEntity
8
0
100
AcDbPolyline
90
8
70
1
43
0.0
10
106.3475
20
-16.024999999999999
42
0.41421356237309503
10
106.84750000000001
20
-16.525000000000006
10
119.8475
20
-16.525000000000002
42
0.41421356237307161
10
120.34750000000001
20
-16.024999999999999
10
120.34750000000001
20
-3.0249999999999999
42
0.41421356237307422
10
119.8475
20
-2.5249999999999999
10
106.84750000000001
20
-2.5249999999999999
42
0.41421356237309309
10
106.3475
20
-3.0249999999999999
0
LWPOLYLINE
5
112
100
AcDbEntity
8
0
100
AcDbPolyline
90
8
70
1
43
0.0
10
139.39750000000001
20
-16.024999999999999
10
139.39750000000001
20
-3.0249999999999999
42
0.41421356237307422
10
138.89750000000001
20
-2.5249999999999999
10
125.89750000000001
20
-2.5249999999999999
42
0.41421356237307227
10
125.39749999999999
20
-3.0249999999999999
10
125.39749999999999
20
-16.024999999999999
42
0.41421356237307422
10
125.89750000000001
20
-16.525000000000006
10
138.89750000000001
20
-16.525000000000002
42
0.41421356237307161
0
LWPOLYLINE
5
113
100
AcDbEntity
8
0
100
AcDbPolyline
90
8
70
1
43
0.0
10
144.44749999999999
20
-16.024999999999999
42
0.41421356237309503
10
144.94749999999999
20
-16.525000000000006
10
157.94749999999999
20
-16.525000000000002
42
0.41421356237308854
10
158.44750000000005
20
-16.024999999999999
10
158.44750000000005
20
-3.0249999999999999
42
0.41421356237309015
10
157.94749999999999
20
-2.5250000000000012
10
144.94749999999999
20
-2.5249999999999999
42
0.41421356237309309
10
144.44749999999999
20
-3.0249999999999999
0
LWPOLYLINE
5
114
100
AcDbEntity
8
0
100
AcDbPolyline
90
8
70
1
43
0.0
10
177.49750000000003
20
-3.0249999999999999
42
0.41421356237312335
10
176.9975
20
-2.5250000000000155
10
163.9975
20
-2.5249999999999999
42
0.41421356237314383
10
163.4975
20
-3.0249999999999999
10
163.4975
20
-16.024999999999999
42
0.41421356237309892
10
163.9975
20
-16.525000000000002
10
176.9975
20
-16.525000000000002
42
0.41421356237309892
10
177.49750000000003
20
-16.024999999999999
0
LWPOLYLINE
5
115
100
AcDbEntity
8
0
100
AcDbPolyline
90
8
70
1
43
0.0
10
196.54750000000007
20
-3.0249999999999999
42
0.41421356237307327
10
196.04750000000001
20
-2.5249999999999946
10
183.04750000000001
20
-2.5249999999999999
42
0.41421356237314383
10
182.54750000000001
20
-3.0249999999999999
10
182.54750000000001
20
-16.024999999999999
42
0.41421356237309892
10
183.04750000000001
20
-16.525000000000013
10
196.04750000000001
20
-16.525000000000002
42
0.41421356237310542
10
196.54750000000007
20
-16.024999999999999
0
LWPOLYLINE
5
116
100
AcDbEntity
8
0
100
AcDbPolyline
90
8
70
1
43
0.0
10
215.59750000000005
20
-3.0249999999999999
42
0.41421356237307327
10
215.0975
20
-2.5249999999999946
10
202.0975
20
-2.5249999999999999
42
0.41421356237308332
10
201.59750000000005
20
-3.0249999999999999
10
201.59750000000003
20
-16.024999999999999
42
0.41421356237307294
10
202.0975
20
-16.525000000000002
10
215.0975
20
-16.525000000000002
42
0.41421356237310542
10
215.59750000000005
20
-16.024999999999999
0
LWPOLYLINE
5
117
100
AcDbEntity
8
0
100
AcDbPolyline
90
8
70
1
43
0.0
10
234.14750000000001
20
-2.5249999999999999
10
221.14750000000001
20
-2.5249999999999999
42
0.41421356237308332
10
220.64750000000006
20
-3.0249999999999999
10
220.64750000000004
20
-16.024999999999999
42
0.41421356237307294
10
221.14750000000001
20
-16.525000000000002
10
234.14750000000001
20
-16.525000000000002
42
0.41421356237310542
10
234.64750000000006
20
-16.024999999999999
10
234.64750000000006
20
-3.0249999999999999
42
0.41421356237307327
0
LWPOLYLINE
5
118
100
AcDbEntity
8
0
100
AcDbPolyline
90
8
70
1
43
0.0
10
253.19749999999999
20
-16.525000000000002
42
0.41421356237309892
10
253.69749999999999
20
-16.024999999999999
10
253.69749999999999
20
-3.0249999999999999
42
0.41421356237312335
10
253.19749999999999
20
-2.5249999999999999
10
240.19750000000002
20
-2.5249999999999999
42
0.41421356237312101
10
239.69750000000002
20
-3.0249999999999999
10
239.69750000000002
20
-16.024999999999999
42
0.41421356237312362
10
240.19750000000002
20
-16.524999999999984
0
LWPOLYLINE
5
119
100
AcDbEntity
8
0
100
AcDbPolyline
90
8
70
1
43
0.0
10
259.24750000000006
20
-16.525000000000002
10
272.2475
20
-16.525000000000002
42
0.41421356237309892
10
272.7475
20
-16.024999999999999
10
272.7475
20
-3.0249999999999999
42
0.41421356237312335
10
272.2475
20
-2.5249999999999999
10
259.24750000000006
20
-2.5249999999999999
42
0.41421356237310414
10
258.7475
20
-3.0249999999999999
10
258.7475
20
-16.024999999999999
42
0.41421356237307161
0
LWPOLYLINE
5
120
100
AcDbEntity
8
0
100
AcDbPolyline
90
16
70
1
43
0.0
10
2.5249999999999999
20
-22.074999999999999
10
2.5249999999999999
20
-35.075000000000003
42
0.41421356237309631
10
3.0249999999999999
20
-35.57500000000001
10
5.2750000000000004
20
-35.575000000000003
10
5.2750000000000004
20
-36.825000000000003
10
13.775000000000002
20
-36.825000000000003
10
13.775000000000002
20
-35.575000000000003
10
16.024999999999999
20
-35.57500000000001
42
0.4142135623730937
10
16.525000000000002
20
-35.075000000000003
10
16.525000000000002
20
-22.074999999999999
42
0.41421356237309503
10
16.024999999999999
20
-21.575000000000006
10
13.775000000000002
20
-21.575000000000003
10
13.775000000000002
20
-20.325000000000003
10
5.2750000000000004
20
-20.325000000000003
10
5.2750000000000004
20
-21.575000000000003
10
3.0249999999999999
20
-21.575000000000006
42
0.41421356237308787
0
LWPOLYLINE
5
121
100
AcDbEntity
8
0
100
AcDbPolyline
90
8
70
1
43
0.0
10
63.197499999999998
20
-35.075000000000003
10
63.197499999999998
20
-22.074999999999999
42
0.41421356237309503
10
62.697500000000019
20
-21.575000000000003
10
49.697500000000012
20
-21.575000000000006
42
0.41421356237310542
10
49.197500000000019
20
-22.074999999999999
10
49.197500000000012
20
-35.075000000000003
42
0.41421356237308982
10
49.697500000000012
20
-35.57500000000001
10
62.697500000000019
20
-35.57500000000001
42
0.41421356237308982
0
LWPOLYLINE
5
122
100
AcDbEntity
8
0
100
AcDbPolyline
90
8
70
1
43
0.0
10
81.747500000000016
20
-21.575000000000006
10
68.747500000000002
20
-21.575000000000006
42
0.41421356237310542
10
68.247500000000016
20
-22.074999999999999
10
68.247500000000002
20
-35.075000000000003
42
0.41421356237308982
10
68.747500000000002
20
-35.57500000000001
10
81.747500000000016
20
-35.57500000000001
42
0.41421356237307161
10
82.247500000000016
20
-35.075000000000003
10
82.247500000000016
20
-22.074999999999999
42
0.41421356237308982
0
LWPOLYLINE
5
123
100
AcDbEntity
8
0
100
AcDbPolyline
90
8
70
1
43
0.0
10
87.797499999999999
20
-21.575000000000006
42
0.41421356237308721
10
87.297499999999985
20
-22.074999999999999
10
87.297499999999985
20
-35.075000000000003
42
0.41421356237309243
10
87.797499999999999
20
-35.575000000000003
10
100.79750000000001
20
-35.57500000000001
42
0.41421356237309243
10
101.29750000000001
20
-35.075000000000003
10
101.29750000000001
20
-22.074999999999999
42
0.41421356237311063
10
100.79750000000001
20
-21.575000000000006
0
LWPOLYLINE
5
124
100
AcDbEntity
8
0
100
AcDbPolyline
90
8
70
1
43
0.0
10
106.84750000000001
20
-35.57500000000001
10
119.8475
20
-35.57500000000001
42
0.41421356237307161
10
120.34750000000001
20
-35.075000000000003
10
120.34750000000001
20
-22.074999999999999
42
0.41421356237308982
10
119.8475
20
-21.575000000000006
10
106.84750000000001
20
-21.575000000000006
42
0.41421356237308721
10
106.3475
20
-22.074999999999999
10
106.3475
20
-35.075000000000003
42
0.41421356237309243
0
LWPOLYLINE
5
125
100
AcDbEntity
8
0
100
AcDbPolyline
90
8
70
1
43
0.0
10
139.39750000000001
20
-35.075000000000003
10
139.39750000000001
20
-22.074999999999999
42
0.41421356237308982
10
138.89750000000001
20
-21.575000000000006
10
125.89750000000001
20
-21.575000000000006
42
0.41421356237306639
10
125.39749999999999
20
-22.074999999999999
10
125.39749999999999
20
-35.075000000000003
42
0.41421356237307161
10
125.89750000000001
20
-35.575000000000003
10
138.89750000000001
20
-35.57500000000001
42
0.41421356237307161
0
LWPOLYLINE
5
126
100
AcDbEntity
8
0
100
AcDbPolyline
90
8
70
1
43
0.0
10
158.44750000000005
20
-22.074999999999999
42
0.41421356237308982
10
157.94749999999999
20
-21.575000000000003
10
144.94749999999999
20
-21.575000000000006
42
0.41421356237308721
10
144.44749999999999
20
-22.074999999999999
10
144.44749999999999
20
-35.075000000000003
42
0.41421356237309243
10
144.94749999999999
20
-35.57500000000001
10
157.94749999999999
20
-35.57500000000001
42
0.41421356237307944
10
158.44750000000005
20
-35.075000000000003
0
LWPOLYLINE
5
127
100
AcDbEntity
8
0
100
AcDbPolyline
90
8
70
1
43
0.0
10
177.49750000000003
20
-22.074999999999999
42
0.41421356237312884
10
176.9975
20
-21.575000000000006
10
163.9975
20
-21.575000000000006
42
0.41421356237316265
10
163.4975
20
-22.074999999999999
10
163.4975
20
-35.075000000000003
42
0.41421356237309764
10
163.9975
20
-35.575000000000017
10
176.9975
20
-35.57500000000001
42
0.41421356237310025
10
177.49750000000003
20
-35.075000000000003
0
LWPOLYLINE
5
128
100
AcDbEntity
8
0
100
AcDbPolyline
90
8
70
1
43
0.0
10
196.54750000000007
20
-22.074999999999999
42
0.41421356237307683
10
196.04750000000001
20
-21.574999999999989
10
183.04750000000001
20
-21.575000000000006
42
0.41421356237316265
10
182.54750000000001
20
-22.074999999999999
10
182.54750000000001
20
-35.075000000000003
42
0.41421356237309764
10
183.04750000000001
20
-35.57500000000001
10
196.04750000000001
20
-35.57500000000001
42
0.41421356237307422
10
196.54750000000007
20
-35.075000000000003
0
LWPOLYLINE
5
129
100
AcDbEntity
8
0
100
AcDbPolyline
90
8
70
1
43
0.0
10
201.59750000000003
20
-35.075000000000003
42
0.41421356237305079
10
202.0975
20
-35.575000000000038
10
215.0975
20
-35.57500000000001
42
0.4142135623730846
10
215.59750000000005
20
-35.075000000000003
10
215.59750000000005
20
-22.074999999999999
42
0.41421356237307683
10
215.0975
20
-21.575000000000006
10
202.0975
20
-21.575000000000006
42
0.41421356237307944
10
201.59750000000003
20
-22.074999999999999
0
LWPOLYLINE
5
130
100
AcDbEntity
8
0
100
AcDbPolyline
90
8
70
1
43
0.0
10
234.64750000000006
20
-35.075000000000003
10
234.64750000000006
20
-22.074999999999999
42
0.41421356237307683
10
234.14750000000001
20
-21.575000000000006
10
221.14750000000001
20
-21.575000000000006
42
0.41421356237307944
10
220.64750000000004
20
-22.074999999999999
10
220.64750000000004
20
-35.075000000000003
42
0.41421356237305079
10
221.14750000000001
20
-35.57500000000001
10
234.14750000000001
20
-35.57500000000001
42
0.4142135623730846
0
LWPOLYLINE
5
131
100
AcDbEntity
8
0
100
AcDbPolyline
90
8
70
1
43
0.0
10
239.69750000000002
20
-35.075000000000003
42
0.41421356237310025
10
240.19750000000002
20
-35.575000000000017
10
253.19749999999999
20
-35.57500000000001
42
0.41421356237310025
10
253.69749999999999
20
-35.075000000000003
10
253.69749999999999
20
-22.074999999999999
42
0.41421356237312884
10
253.19749999999999
20
-21.575000000000006
10
240.19750000000002
20
-21.575000000000006
42
0.41421356237301959
10
239.69750000000002
20
-22.074999999999999
0
LWPOLYLINE
5
132
100
AcDbEntity
8
0
100
AcDbPolyline
90
8
70
1
43
0.0
10
272.2475
20
-21.575000000000006
10
259.24750000000006
20
-21.575000000000006
42
0.41421356237310025
10
258.7475
20
-22.074999999999999
10
258.7475
20
-35.075000000000003
42
0.41421356237307422
10
259.24750000000006
20
-35.57500000000001
10
272.2475
20
-35.57500000000001
42
0.41421356237310025
10
272.7475
20
-35.075000000000003
10
272.7475
20
-22.074999999999999
42
0.41421356237312884
0
LWPOLYLINE
5
133
100
AcDbEntity
8
0
100
AcDbPolyline
90
16
70
1
43
0.0
10
3.0249999999999999
20
-40.625
42
0.41421356237309243
10
2.5249999999999972
20
-41.124999999999986
10
2.5249999999999999
20
-54.125000000000014
42
0.41421356237307977
10
3.0249999999999999
20
-54.625
10
5.2750000000000004
20
-54.625
10
5.2750000000000004
20
-55.875
10
13.775000000000002
20
-55.875
10
13.775000000000002
20
-54.625
10
16.024999999999999
20
-54.625
42
0.41421356237310281
10
16.525000000000002
20
-54.125000000000014
10
16.525000000000002
20
-41.125
42
0.41421356237308721
10
16.024999999999999
20
-40.625
10
13.775000000000002
20
-40.625000000000007
10
13.775000000000002
20
-39.375000000000007
10
5.2750000000000004
20
-39.375000000000007
10
5.2750000000000004
20
-40.625000000000007
0
LWPOLYLINE
5
134
100
AcDbEntity
8
0
100
AcDbPolyline
90
8
70
1
43
0.0
10
63.197499999999998
20
-54.125000000000014
10
63.197499999999998
20
-41.125
42
0.41421356237310025
10
62.697500000000019
20
-40.625
10
49.697500000000012
20
-40.625
42
0.41421356237309503
10
49.197500000000012
20
-41.125
10
49.197500000000012
20
-54.125000000000014
42
0.41421356237311063
10
49.697500000000012
20
-54.625
10
62.697500000000019
20
-54.625
42
0.41421356237308982
0
LWPOLYLINE
5
135
100
AcDbEntity
8
0
100
AcDbPolyline
90
8
70
1
43
0.0
10
82.247500000000016
20
-54.125000000000014
10
82.247500000000016
20
-41.125
42
0.41421356237305862
10
81.747500000000031
20
-40.625
10
68.747500000000002
20
-40.625
42
0.41421356237309503
10
68.247500000000002
20
-41.125
10
68.247500000000002
20
-54.125000000000014
42
0.41421356237311063
10
68.747500000000002
20
-54.625
10
81.747500000000016
20
-54.625
42
0.4142135623730846
0
LWPOLYLINE
5
136
100
AcDbEntity
8
0
100
AcDbPolyline
90
8
70
1
43
0.0
10
100.79750000000001
20
-40.625
10
87.797499999999999
20
-40.625
42
0.41421356237308982
10
87.297499999999985
20
-41.125
10
87.297499999999985
20
-54.125000000000014
42
0.41421356237310542
10
87.797499999999999
20
-54.625
10
100.79750000000001
20
-54.625
42
0.4142135623730846
10
101.29750000000001
20
-54.125000000000014
10
101.29750000000001
20
-41.125
42
0.41421356237308982
0
LWPOLYLINE
5
137
100
AcDbEntity
8
0
100
AcDbPolyline
90
8
70
1
43
0.0
10
119.8475
20
-40.625
10
106.84750000000001
20
-40.625
42
0.41421356237308982
10
106.3475
20
-41.125
10
106.3475
20
-54.125000000000014
42
0.41421356237310542
10
106.84750000000001
20
-54.625
10
119.8475
20
-54.625
42
0.4142135623730846
10
120.34750000000001
20
-54.125000000000014
10
120.34750000000001
20
-41.125
42
0.414213562373069
0
LWPOLYLINE
5
138
100
AcDbEntity
8
0
100
AcDbPolyline
90
8
70
1
43
0.0
10
139.39750000000001
20
-41.125
42
0.41421356237305862
10
138.89750000000004
20
-40.625
10
125.89750000000001
20
-40.625
42
0.414213562373069
10
125.39749999999999
20
-41.125
10
125.39749999999999
20
-54.125000000000014
42
0.41421356237306384
10
125.89750000000001
20
-54.625
10
138.89750000000001
20
-54.625
42
0.4142135623730846
10
139.39750000000001
20
-54.125000000000014
0
LWPOLYLINE
5
139
100
AcDbEntity
8
0
100
AcDbPolyline
90
8
70
1
43
0.0
10
144.44749999999999
20
-54.125000000000014
42
0.41421356237310542
10
144.94749999999999
20
-54.625
10
157.94749999999999
20
-54.625
42
0.41421356237310542
10
158.44750000000005
20
-54.125000000000014
10
158.44750000000005
20
-41.125
42
0.4142135623730846
10
157.94749999999999
20
-40.625000000000007
10
144.94749999999999
20
-40.625
42
0.41421356237308982
10
144.44749999999999
20
-41.125
0
LWPOLYLINE
5
140
100
AcDbEntity
8
0
100
AcDbPolyline
90
8
70
1
43
0.0
10
163.9975
20
-40.625
42
0.41421356237313667
10
163.4975
20
-41.125
10
163.4975
20
-54.125000000000014
42
0.41421356237312101
10
163.9975
20
-54.625
10
176.9975
20
-54.625
42
0.41421356237301177
10
177.4975
20
-54.125000000000014
10
177.49750000000003
20
-41.125
42
0.41421356237312101
10
176.9975
20
-40.625000000000014
0
LWPOLYLINE
5
141
100
AcDbEntity
8
0
100
AcDbPolyline
90
8
70
1
43
0.0
10
182.54750000000001
20
-54.125000000000014
42
0.41421356237312101
10
183.04750000000001
20
-54.624999999999993
10
196.04750000000001
20
-54.625
42
0.41421356237310542
10
196.54750000000007
20
-54.125000000000014
10
196.54750000000007
20
-41.125
42
0.414213562373069
10
196.04750000000001
20
-40.625
10
183.04750000000001
20
-40.625
42
0.41421356237313667
10
182.54750000000001
20
-41.125
0
LWPOLYLINE
5
142
100
AcDbEntity
8
0
100
AcDbPolyline
90
8
70
1
43
0.0
10
201.59750000000003
20
-54.125000000000014
42
0.414213562373069
10
202.0975
20
-54.625000000000014
10
215.0975
20
-54.625
42
0.41421356237310542
10
215.59750000000005
20
-54.125000000000014
10
215.59750000000005
20
-41.125
42
0.414213562373069
10
215.0975
20
-40.625
10
202.0975
20
-40.625
42
0.4142135623730846
10
201.59750000000003
20
-41.125
0
LWPOLYLINE
5
143
100
AcDbEntity
8
0
100
AcDbPolyline
90
8
70
1
43
0.0
10
220.64750000000004
20
-41.125
10
220.64750000000004
20
-54.125000000000014
42
0.414213562373069
10
221.14750000000001
20
-54.625000000000014
10
234.14750000000001
20
-54.625
42
0.41421356237310542
10
234.64750000000006
20
-54.125000000000014
10
234.64750000000006
20
-41.125
42
0.414213562373069
10
234.14750000000001
20
-40.625
10
221.14750000000001
20
-40.625
42
0.4142135623730846
0
LWPOLYLINE
5
144
100
AcDbEntity
8
0
100
AcDbPolyline
90
8
70
1
43
0.0
10
253.19749999999999
20
-40.625
10
240.19750000000002
20
-40.625
42
0.41421356237312101
10
239.69749999999999
20
-41.125
10
239.69750000000002
20
-54.125000000000014
42
0.41421356237312623
10
240.19750000000002
20
-54.625
10
253.19749999999999
20
-54.625
42
0.41421356237301177
10
253.69749999999996
20
-54.125000000000014
10
253.69749999999999
20
-41.125
42
0.41421356237312101
0
LWPOLYLINE
5
145
100
AcDbEntity
8
0
100
AcDbPolyline
90
8
70
1
43
0.0
10
258.7475
20
-41.125
10
258.7475
20
-54.125000000000014
42
0.41421356237307422
10
259.24750000000006
20
-54.625
10
272.2475
20
-54.625
42
0.41421356237301177
10
272.74749999999995
20
-54.125000000000014
10
272.7475
20
-41.125
42
0.41421356237312101
10
272.2475
20
-40.625000000000014
10
259.24750000000006
20
-40.625
42
0.41421356237311063
0
LWPOLYLINE
5
146
100
AcDbEntity
8
0
100
AcDbPolyline
90
16
70
1
43
0.0
10
16.024999999999999
20
-73.674999999999983
42
0.41421356237308982
10
16.525000000000006
20
-73.174999999999983
10
16.525000000000002
20
-60.174999999999997
42
0.41421356237309631
10
16.024999999999999
20
-59.675000000000004
10
13.775000000000002
20
-59.675000000000011
10
13.775000000000002
20
-58.425000000000011
10
5.2750000000000004
20
-58.425000000000011
10
5.2750000000000004
20
-59.675000000000011
10
3.0249999999999999
20
-59.675000000000004
42
0.41421356237309664
10
2.5249999999999999
20
-60.174999999999997
10
2.5249999999999999
20
-73.174999999999983
42
0.41421356237309698
10
3.0249999999999999
20
-73.674999999999983
10
5.2750000000000004
20
-73.675000000000011
10
5.2750000000000004
20
-74.925000000000011
10
13.775000000000002
20
-74.925000000000011
10
13.775000000000002
20
-73.675000000000011
0
LWPOLYLINE
5
147
100
AcDbEntity
8
0
100
AcDbPolyline
90
8
70
1
43
0.0
10
68.247500000000002
20
-60.174999999999997
10
68.247500000000002
20
-73.174999999999983
42
0.41421356237310542
10
68.747500000000002
20
-73.674999999999983
10
81.747500000000016
20
-73.674999999999983
42
0.41421356237307422
10
82.247500000000016
20
-73.174999999999983
10
82.247500000000016
20
-60.174999999999997
42
0.41421356237309503
10
81.747500000000016
20
-59.675000000000004
10
68.747500000000002
20
-59.675000000000004
42
0.41421356237310542
0
LWPOLYLINE
5
148
100
AcDbEntity
8
0
100
AcDbPolyline
90
8
70
1
43
0.0
10
87.297499999999985
20
-73.174999999999983
42
0.41421356237311585
10
87.797499999999999
20
-73.674999999999997
10
100.79750000000001
20
-73.674999999999983
42
0.41421356237310542
10
101.29750000000001
20
-73.174999999999983
10
101.29750000000001
20
-60.174999999999997
42
0.41421356237311585
10
100.79750000000001
20
-59.675000000000004
10
87.797499999999999
20
-59.675000000000004
42
0.41421356237310542
10
87.297499999999985
20
-60.174999999999997
0
LWPOLYLINE
5
149
100
AcDbEntity
8
0
100
AcDbPolyline
90
52
70
1
43
0.0
10
106.3475
20
-73.174999999999983
42
0.41421356237309503
10
106.84750000000001
20
-73.674999999999997
10
109.4725
20
-73.674999999999983
10
109.4725
20
-76.675000000000026
42
0.41421356237309503
10
109.97250000000001
20
-77.174999999999983
10
116.7225
20
-77.174999999999983
42
0.41421356237305862
10
117.22250000000001
20
-76.675000000000026
10
117.22250000000001
20
-73.674999999999983
10
126.10950000000001
20
-73.674999999999983
10
126.10950000000001
20
-76.674999999999983
42
0.41421356237306384
10
126.6095
20
-77.174999999999983
10
133.35949999999991
20
-77.174999999999983
42
0.41421356237309503
10
133.85949999999991
20
-76.674999999999983
10
133.85949999999991
20
-73.674999999999983
10
145.15950000000001
20
-73.674999999999983
10
145.15950000000004
20
-76.675000000000026
42
0.414213562373069
10
145.65950000000004
20
-77.174999999999983
10
157.23549999999992
20
-77.174999999999983
42
0.41421356237311585
10
157.73549999999994
20
-76.675000000000026
10
157.73549999999994
20
-73.674999999999983
10
164.20950000000002
20
-73.674999999999983
10
164.20950000000002
20
-76.675000000000026
42
0.41421356237313667
10
164.70949999999999
20
-77.174999999999983
10
176.28550000000004
20
-77.174999999999983
42
0.41421356237311585
10
176.78550000000004
20
-76.675000000000026
10
176.78550000000004
20
-73.674999999999983
10
188.08550000000011
20
-73.674999999999983
10
188.08550000000008
20
-76.674999999999983
42
0.41421356237314189
10
188.58550000000011
20
-77.174999999999983
10
195.33550000000002
20
-77.174999999999983
42
0.41421356237314189
10
195.83550000000002
20
-76.674999999999983
10
195.83550000000002
20
-73.674999999999983
10
204.72250000000003
20
-73.674999999999983
10
204.72250000000003
20
-76.675000000000026
42
0.41421356237309503
10
205.2225
20
-77.174999999999983
10
211.97249999999985
20
-77.174999999999983
42
0.41421356237313667
10
212.47249999999985
20
-76.675000000000026
10
212.47249999999985
20
-73.674999999999983
10
215.0975
20
-73.674999999999983
42
0.41421356237309503
10
215.59750000000003
20
-73.174999999999983
10
215.59750000000003
20
-60.174999999999997
42
0.41421356237309503
10
215.0975
20
-59.674999999999997
10
212.47249999999985
20
-59.675000000000004
10
212.47249999999985
20
-56.625
42
0.41421356237315227
10
211.97249999999985
20
-56.125
10
204.72250000000003
20
-56.125
10
117.22250000000001
20
-56.125000000000007
10
109.97250000000001
20
-56.125000000000007
42
0.41421356237308982
10
109.4725
20
-56.625000000000014
10
109.4725
20
-59.675000000000004
10
106.84750000000001
20
-59.675000000000004
42
0.41421356237309503
10
106.3475
20
-60.174999999999997
0
LINE
5
150
100
AcDbEntity
8
0
100
AcDbLine
10
117.22250000000001
20
-73.674999999999983
30
0
11
119.8475
21
-73.674999999999983
31
0
0
LINE
5
151
100
AcDbEntity
8
0
100
AcDbLine
10
125.89750000000001
20
-73.674999999999983
30
0
11
126.10950000000001
21
-73.674999999999983
31
0
0
LINE
5
152
100
AcDbEntity
8
0
100
AcDbLine
10
138.89750000000001
20
-73.674999999999983
30
0
11
144.94749999999999
21
-73.674999999999983
31
0
0
LINE
5
153
100
AcDbEntity
8
0
100
AcDbLine
10
135.42250000000001
20
-73.674999999999983
30
0
11
138.89750000000001
21
-73.674999999999983
31
0
0
LINE
5
154
100
AcDbEntity
8
0
100
AcDbLine
10
133.85949999999991
20
-73.674999999999983
30
0
11
135.42250000000001
21
-73.674999999999983
31
0
0
LINE
5
155
100
AcDbEntity
8
0
100
AcDbLine
10
144.94749999999999
20
-73.674999999999983
30
0
11
145.15950000000001
21
-73.674999999999983
31
0
0
LINE
5
156
100
AcDbEntity
8
0
100
AcDbLine
10
148.44749999999999
20
-77.174999999999983
30
0
11
150.8605
21
-77.174999999999983
31
0
0
LINE
5
157
100
AcDbEntity
8
0
100
AcDbLine
10
150.8605
20
-77.174999999999983
30
0
11
152.03450000000001
21
-77.174999999999983
31
0
0
LINE
5
158
100
AcDbEntity
8
0
100
AcDbLine
10
152.03450000000001
20
-77.174999999999983
30
0
11
154.44749999999999
21
-77.174999999999983
31
0
0
LINE
5
159
100
AcDbEntity
8
0
100
AcDbLine
10
110.34750000000001
20
-77.174999999999983
30
0
11
116.3475
21
-77.174999999999983
31
0
0
LINE
5
160
100
AcDbEntity
8
0
100
AcDbLine
10
154.44749999999999
20
-77.174999999999983
30
0
11
156.8605
21
-77.174999999999983
31
0
0
LINE
5
161
100
AcDbEntity
8
0
100
AcDbLine
10
126.98450000000001
20
-77.174999999999983
30
0
11
132.9845
21
-77.174999999999983
31
0
0
LINE
5
162
100
AcDbEntity
8
0
100
AcDbLine
10
157.73549999999994
20
-73.674999999999983
30
0
11
157.94749999999999
21
-73.674999999999983
31
0
0
LINE
5
163
100
AcDbEntity
8
0
100
AcDbLine
10
157.94749999999999
20
-73.674999999999983
30
0
11
163.9975
21
-73.674999999999983
31
0
0
LINE
5
164
100
AcDbEntity
8
0
100
AcDbLine
10
163.9975
20
-73.674999999999983
30
0
11
164.20950000000002
21
-73.674999999999983
31
0
0
LINE
5
165
100
AcDbEntity
8
0
100
AcDbLine
10
169.91050000000001
20
-77.174999999999983
30
0
11
171.08450000000005
21
-77.174999999999983
31
0
0
LINE
5
166
100
AcDbEntity
8
0
100
AcDbLine
10
171.08450000000005
20
-77.174999999999983
30
0
11
173.4975
21
-77.174999999999983
31
0
0
LINE
5
167
100
AcDbEntity
8
0
100
AcDbLine
10
173.4975
20
-77.174999999999983
30
0
11
175.91050000000001
21
-77.174999999999983
31
0
0
LINE
5
168
100
AcDbEntity
8
0
100
AcDbLine
10
146.03450000000004
20
-77.174999999999983
30
0
11
148.44749999999999
21
-77.174999999999983
31
0
0
LINE
5
169
100
AcDbEntity
8
0
100
AcDbLine
10
176.78550000000004
20
-73.674999999999983
30
0
11
176.9975
21
-73.674999999999983
31
0
0
LINE
5
170
100
AcDbEntity
8
0
100
AcDbLine
10
176.9975
20
-73.674999999999983
30
0
11
183.04750000000001
21
-73.674999999999983
31
0
0
LINE
5
171
100
AcDbEntity
8
0
100
AcDbLine
10
183.04750000000001
20
-73.674999999999983
30
0
11
186.52250000000006
21
-73.674999999999983
31
0
0
LINE
5
172
100
AcDbEntity
8
0
100
AcDbLine
10
188.9605
20
-77.174999999999983
30
0
11
194.9605
21
-77.174999999999983
31
0
0
LINE
5
173
100
AcDbEntity
8
0
100
AcDbLine
10
165.08449999999999
20
-77.174999999999983
30
0
11
167.49750000000003
21
-77.174999999999983
31
0
0
LINE
5
174
100
AcDbEntity
8
0
100
AcDbLine
10
167.49750000000003
20
-77.174999999999983
30
0
11
169.91050000000001
21
-77.174999999999983
31
0
0
LINE
5
175
100
AcDbEntity
8
0
100
AcDbLine
10
186.52250000000006
20
-73.674999999999983
30
0
11
188.08550000000011
21
-73.674999999999983
31
0
0
LINE
5
176
100
AcDbEntity
8
0
100
AcDbLine
10
195.83550000000002
20
-73.674999999999983
30
0
11
196.04750000000001
21
-73.674999999999983
31
0
0
LINE
5
177
100
AcDbEntity
8
0
100
AcDbLine
10
205.59750000000005
20
-77.174999999999983
30
0
11
211.59750000000003
21
-77.174999999999983
31
0
0
LINE
5
178
100
AcDbEntity
8
0
100
AcDbLine
10
202.0975
20
-73.674999999999983
30
0
11
204.72250000000003
21
-73.674999999999983
31
0
0
LWPOLYLINE
5
179
100
AcDbEntity
8
0
100
AcDbPolyline
90
8
70
1
43
0.0
10
234.14750000000001
20
-59.675000000000004
10
221.14750000000001
20
-59.675000000000004
42
0.4142135623730846
10
220.64750000000006
20
-60.174999999999997
10
220.64750000000004
20
-73.174999999999983
42
0.41421356237307422
10
221.14750000000001
20
-73.674999999999983
10
234.14750000000001
20
-73.674999999999983
42
0.41421356237310025
10
234.64750000000009
20
-73.174999999999983
10
234.64750000000006
20
-60.174999999999997
42
0.41421356237310025
0
LWPOLYLINE
5
180
100
AcDbEntity
8
0
100
AcDbPolyline
90
8
70
1
43
0.0
10
240.19750000000002
20
-59.675000000000004
42
0.4142135623730222
10
239.69750000000005
20
-60.174999999999997
10
239.69750000000002
20
-73.174999999999983
42
0.41421356237313145
10
240.19750000000002
20
-73.674999999999983
10
253.19749999999999
20
-73.674999999999983
42
0.4142135623730222
10
253.69749999999999
20
-73.174999999999983
10
253.69749999999999
20
-60.174999999999997
42
0.41421356237313145
10
253.19749999999999
20
-59.675000000000004
0
LINE
5
181
100
AcDbEntity
8
0
100
AcDbLine
10
126.10950000000001
20
-56.125000000000007
30
0
11
133.85949999999991
21
-56.125000000000007
31
0
0
LINE
5
182
100
AcDbEntity
8
0
100
AcDbLine
10
145.15950000000001
20
-56.125000000000007
30
0
11
157.73549999999994
21
-56.125000000000007
31
0
0
LINE
5
183
100
AcDbEntity
8
0
100
AcDbLine
10
164.20950000000002
20
-56.125000000000007
30
0
11
176.78550000000004
21
-56.125000000000007
31
0
0
LINE
5
184
100
AcDbEntity
8
0
100
AcDbLine
10
188.08550000000011
20
-56.125
30
0
11
195.83550000000002
21
-56.125
31
0
0
ENDSEC
0
SECTION
2
OBJECTS
0
DICTIONARY
5
C
100
AcDbDictionary
3
ACAD_GROUP
350
D
3
ACAD_MLINESTYLE
350
17
0
DICTIONARY
5
D
100
AcDbDictionary
0
DICTIONARY
5
1A
330
C
100
AcDbDictionary
0
DICTIONARY
5
17
100
AcDbDictionary
0
ENDSEC
0
EOF
